<?xml version="1.0" encoding="UTF-8" standalone="no"?>
<!-- Created with Inkscape (http://www.inkscape.org/) -->

<svg
   xmlns:dc="http://purl.org/dc/elements/1.1/"
   xmlns:cc="http://creativecommons.org/ns#"
   xmlns:rdf="http://www.w3.org/1999/02/22-rdf-syntax-ns#"
   xmlns:svg="http://www.w3.org/2000/svg"
   xmlns="http://www.w3.org/2000/svg"
   xmlns:sodipodi="http://sodipodi.sourceforge.net/DTD/sodipodi-0.dtd"
   xmlns:inkscape="http://www.inkscape.org/namespaces/inkscape"
   width="77.573296"
   height="83.716019"
   id="svg2"
   version="1.1"
   inkscape:version="0.48.0 r9654"
   sodipodi:docname="human01.svg"
   style="display:inline">
  <defs
     id="defs4" />
  <sodipodi:namedview
     id="base"
     pagecolor="#ffffff"
     bordercolor="#666666"
     borderopacity="1.0"
     inkscape:pageopacity="0.0"
     inkscape:pageshadow="2"
     inkscape:zoom="1"
     inkscape:cx="60.132776"
     inkscape:cy="41.858009"
     inkscape:document-units="px"
     inkscape:current-layer="layer2"
     showgrid="false"
     inkscape:object-paths="false"
     inkscape:window-width="1440"
     inkscape:window-height="848"
     inkscape:window-x="-8"
     inkscape:window-y="-8"
     inkscape:window-maximized="1"
     fit-margin-top="10"
     fit-margin-left="10"
     fit-margin-right="10"
     fit-margin-bottom="10" />
  <metadata
     id="metadata7">
    <rdf:RDF>
      <cc:Work
         rdf:about="">
        <dc:format>image/svg+xml</dc:format>
        <dc:type
           rdf:resource="http://purl.org/dc/dcmitype/StillImage" />
        <dc:title></dc:title>
      </cc:Work>
    </rdf:RDF>
  </metadata>
  <g
     inkscape:groupmode="layer"
     id="layer2"
     inkscape:label="face"
     style="display:inline"
     transform="translate(-325.19215,-390.54135)">
    <g
       id="g3815"
       transform="matrix(0.17270919,0,0,0.16998286,325.19217,357.78047)"
       style="stroke-width:11.67265651;stroke-miterlimit:4;stroke-dasharray:none">
      <g
         id="g3821"
         style="stroke-width:11.67265651;stroke-miterlimit:4;stroke-dasharray:none">
        <path
           sodipodi:nodetypes="ssscssscs"
           inkscape:connector-curvature="0"
           d="m 141.34908,546.19546 c -17.1726,-25.25381 -10.06138,-42.35414 -10.06138,-54.47597 0,-20.20305 -19.28606,-68.50968 -19.16077,-142.42348 0.0344,-20.30141 32.34093,-81.86251 113.15275,-85.90312 68.78635,-0.97 109.15804,62.60337 109.19245,82.90478 0.12529,73.9138 -8.13742,124.22468 -8.13742,144.42773 0,12.12183 11.11971,27.21791 -6.05289,52.47172 -10.92607,16.06774 -24.63712,86.91328 -81.87577,76.96271 -56.23653,11.07795 -86.1309,-57.89663 -97.05697,-73.96437 z"
           style="fill:#ffefd4;fill-opacity:1;stroke:#000000;stroke-width:11.67265651;stroke-linecap:butt;stroke-linejoin:round;stroke-miterlimit:4;stroke-opacity:1;stroke-dasharray:none"
           id="path3812" />
      </g>
    </g>
  </g>
  <g
     inkscape:groupmode="layer"
     id="layer8"
     inkscape:label="ears"
     transform="translate(-325.19215,-390.54135)">
    <path
       style="fill:#ffefd4;fill-opacity:1;stroke:#000000;stroke-width:1.19938433;stroke-linecap:butt;stroke-linejoin:miter;stroke-miterlimit:4;stroke-opacity:1;stroke-dasharray:none;display:inline"
       d="m 344.32045,428.37796 c -0.91831,-1.71741 -2.70489,-3.08811 -4.73166,-3.11487 -2.02787,-0.37154 -4.0421,1.53786 -3.77261,3.54011 0.24568,1.87071 1.33887,3.51467 2.5302,4.93545 1.48754,1.12804 2.9845,2.63313 3.10557,4.58259 0.0604,1.40974 -0.16992,2.81209 -0.15144,4.22136 0.0467,0.95354 0.30876,2.22651 1.42919,2.44475 1.30655,0.28116 2.55003,-0.45304 3.61893,-1.10307 0.32916,-0.23772 0.6176,-0.55746 0.72811,-0.95211"
       id="path3837"
       inkscape:connector-curvature="0" />
    <path
       style="fill:#ffefd4;fill-opacity:1;stroke:#000000;stroke-width:1.19938433;stroke-linecap:butt;stroke-linejoin:miter;stroke-miterlimit:4;stroke-opacity:1;stroke-dasharray:none;display:inline"
       d="m 383.67435,427.93034 c 0.6924,-1.81713 2.29033,-3.39743 4.2977,-3.67399 1.96455,-0.61873 4.20603,1.02708 4.19365,3.04681 -0.006,1.88627 -0.88075,3.65212 -1.88171,5.20865 -1.33223,1.30264 -2.62567,2.98053 -2.49758,4.92955 0.11952,1.40609 0.52671,2.76896 0.68782,4.16937 0.0751,0.95181 -0.0228,2.24704 -1.1066,2.60181 -1.26042,0.4401 -2.58757,-0.13495 -3.73082,-0.64796 -0.35683,-0.19526 -0.68379,-0.47685 -0.84367,-0.85482"
       id="path3837-8"
       inkscape:connector-curvature="0" />
    <path
       style="fill:none;stroke:#000000;stroke-width:0.85670292;stroke-linecap:round;stroke-linejoin:miter;stroke-miterlimit:4;stroke-opacity:1;stroke-dasharray:none"
       d="m 337.49736,429.10604 c -0.13656,-2.16789 2.98645,-1.58198 3.76837,-0.24979 1.21848,1.56747 -0.0737,3.83956 1.23331,5.33906 l 0.2546,0.16729 0.31219,0.10225"
       id="path3990"
       inkscape:connector-curvature="0" />
    <path
       style="fill:none;stroke:#000000;stroke-width:0.85670292;stroke-linecap:round;stroke-linejoin:miter;stroke-miterlimit:4;stroke-opacity:1;stroke-dasharray:none"
       d="m 390.51991,428.97371 c 0.13656,-2.16789 -2.98642,-1.58197 -3.76837,-0.24978 -1.21848,1.56746 0.0737,3.83955 -1.23331,5.33906 l -0.25456,0.16727 -0.31223,0.10226"
       id="path3990-7"
       inkscape:connector-curvature="0" />
  </g>
  <g
     inkscape:groupmode="layer"
     id="layer7"
     inkscape:label="mouth"
     transform="translate(-325.19215,-390.54135)">
    <path
       style="fill:none;stroke:#000000;stroke-width:1.37072468;stroke-linecap:round;stroke-linejoin:miter;stroke-miterlimit:4;stroke-opacity:1;stroke-dasharray:none"
       d="m 357.54402,447.00938 c 0.72326,-0.98111 2.07993,-0.98213 3.09051,-1.51737 0.71752,-0.26611 1.50889,-0.19507 2.23745,-0.41584 0.86237,-0.0841 1.75137,0.11039 2.59395,-0.14935 0.89379,0.12294 1.77838,-0.20309 2.6757,-0.10598 1.03945,0.0399 2.07898,0.13327 3.11281,0.23438 0.8358,0.1465 1.62576,0.46265 2.41757,0.75307 0.18962,0.0739 0.67897,-0.20059 0.70139,0.10501"
       id="path3956"
       inkscape:connector-curvature="0" />
    <path
       style="fill:none;stroke:#000000;stroke-width:1.37072468;stroke-linecap:round;stroke-linejoin:miter;stroke-miterlimit:4;stroke-opacity:1;stroke-dasharray:none"
       d="m 359.77143,447.61839 c 1.64669,0.37655 3.35135,0.21798 5.0243,0.22803 1.17889,-0.0428 2.35902,0.32407 3.53266,0.0571 0.7654,-0.23095 1.63175,-0.0377 2.27798,-0.58903 0.21107,-0.11093 0.41723,-0.32557 0.67336,-0.30523"
       id="path3958"
       inkscape:connector-curvature="0" />
  </g>
  <g
     inkscape:groupmode="layer"
     id="layer5"
     inkscape:label="nose"
     style="display:inline"
     transform="translate(-325.19215,-390.54135)">
    <path
       style="fill:none;stroke:#000000;stroke-width:0.85670292;stroke-linecap:round;stroke-linejoin:miter;stroke-miterlimit:4;stroke-opacity:1;stroke-dasharray:none"
       d="m 354.82163,443.72106 c 0.0162,-2.09559 1.54941,-3.85499 2.99066,-5.24181 1.45773,-1.88846 2.79438,0.35586 1.58352,1.76388 -0.27258,1.55557 1.4102,2.61515 2.77747,2.77748 1.76288,-0.21923 3.34454,1.41565 5.01202,0.13153 1.26834,-1.54629 4.27306,0.36063 5.03911,-1.96825 0.49405,-1.78406 -1.5906,-2.63511 -1.70849,-4.22315 1.56856,-0.86298 3.0798,1.20699 4.59221,1.55224 0.40039,0.41035 0.55812,0.99784 0.5027,1.55431"
       id="path3926"
       inkscape:connector-curvature="0" />
    <path
       style="fill:none;stroke:#000000;stroke-width:0.85670292;stroke-linecap:round;stroke-linejoin:miter;stroke-miterlimit:4;stroke-opacity:1;stroke-dasharray:none"
       d="m 361.87512,429.59321 c -1.27013,1.70058 0.0141,3.5974 0.20639,5.4334 0.18389,1.26523 1.17057,2.22442 1.4023,3.45741"
       id="path3928"
       inkscape:connector-curvature="0" />
    <path
       style="fill:none;stroke:#000000;stroke-width:0.85670292;stroke-linecap:round;stroke-linejoin:miter;stroke-miterlimit:4;stroke-opacity:1;stroke-dasharray:none"
       d="m 367.19619,439.09296 c 0.70805,-2.2267 0.23396,-4.60553 0.37122,-6.89903 0.0207,-1.14466 -0.003,-2.97632 -1.23748,-3.45328"
       id="path3930"
       inkscape:connector-curvature="0" />
    <path
       style="fill:none;stroke:#000000;stroke-width:0.85670292;stroke-linecap:round;stroke-linejoin:miter;stroke-miterlimit:4;stroke-opacity:1;stroke-dasharray:none"
       d="m 363.23637,427.40095 c 0.49499,0 0.98988,0 1.48487,0"
       id="path3932"
       inkscape:connector-curvature="0" />
    <path
       sodipodi:type="arc"
       style="fill:#000000;fill-opacity:1;stroke-width:5;stroke-linecap:round;stroke-linejoin:round;stroke-miterlimit:4;stroke-dasharray:none"
       id="path3946"
       sodipodi:cx="357.17212"
       sodipodi:cy="491.34763"
       sodipodi:rx="7.5231838"
       sodipodi:ry="3.5824685"
       d="m 364.6953,491.34763 c 0,1.97854 -3.36824,3.58246 -7.52318,3.58246 -4.15494,0 -7.52318,-1.60392 -7.52318,-3.58246 0,-1.97855 3.36824,-3.58247 7.52318,-3.58247 4.15494,0 7.52318,1.60392 7.52318,3.58247 z"
       transform="matrix(0.17270919,0,0,0.16998286,301.11631,358.98244)" />
    <path
       sodipodi:type="arc"
       style="fill:#000000;fill-opacity:1;stroke-width:5;stroke-linecap:round;stroke-linejoin:round;stroke-miterlimit:4;stroke-dasharray:none"
       id="path3948"
       sodipodi:cx="385.83185"
       sodipodi:cy="490.27286"
       sodipodi:rx="8.2396774"
       sodipodi:ry="3.2242217"
       d="m 394.07153,490.27286 c 0,1.78069 -3.68903,3.22422 -8.23968,3.22422 -4.55065,0 -8.23968,-1.44353 -8.23968,-3.22422 0,-1.78069 3.68903,-3.22422 8.23968,-3.22422 4.55065,0 8.23968,1.44353 8.23968,3.22422 z"
       transform="matrix(0.17270919,0,0,0.16998286,301.11631,358.98244)" />
  </g>
  <g
     inkscape:groupmode="layer"
     id="layer3"
     inkscape:label="eyes"
     style="display:inline"
     transform="translate(-325.19215,-390.54135)">
    <path
       style="fill:#ffffff;fill-opacity:1;stroke:#000000;stroke-width:1.19938433;stroke-linecap:butt;stroke-linejoin:round;stroke-miterlimit:4;stroke-opacity:1;stroke-dasharray:none"
       d="m 351.68166,428.22305 c 0.78776,-0.26632 1.20328,-0.51391 2.05991,-0.48631 1.4428,-0.007 2.66903,-0.0877 4.09639,0.18182 0.75479,0.51812 2.28799,0.46352 0.85987,1.18602 -0.73553,0.40803 -0.90737,0.6637 -1.69483,1.07091 -0.74959,0.28245 -1.50766,0.5853 -2.33776,0.36267 -1.62357,-0.12245 -2.35678,-1.23231 -3.6642,-1.90403 z"
       id="path3864"
       inkscape:connector-curvature="0"
       sodipodi:nodetypes="cccccccc" />
    <path
       sodipodi:type="arc"
       style="fill:#000000;fill-opacity:1;stroke-width:7;stroke-linejoin:round;stroke-miterlimit:4;stroke-dasharray:none"
       id="path3872"
       sodipodi:cx="315.43634"
       sodipodi:cy="412.7572"
       sodipodi:rx="6.5380049"
       sodipodi:ry="5.3289218"
       d="m 321.97435,412.7572 c 0,2.94308 -2.92717,5.32892 -6.53801,5.32892 -3.61084,0 -6.538,-2.38584 -6.538,-5.32892 0,-2.94308 2.92716,-5.32892 6.538,-5.32892 3.61084,0 6.53801,2.38584 6.53801,5.32892 z"
       transform="matrix(0.19755092,0,0,0.2014083,292.77762,345.84393)" />
    <path
       style="fill:#ffffff;fill-opacity:1;stroke:#000000;stroke-width:1.19938433;stroke-linecap:butt;stroke-linejoin:round;stroke-miterlimit:4;stroke-opacity:1;stroke-dasharray:none;display:inline"
       d="m 376.30445,428.13546 c -0.7988,-0.23221 -1.2249,-0.4618 -2.07948,-0.3974 -1.44175,0.0549 -2.67037,0.0278 -4.08445,0.35751 -0.73111,0.55004 -2.26527,0.56129 -0.80649,1.22185 0.7529,0.37599 0.93591,0.62409 1.74066,0.99707 0.7614,0.25 1.53227,0.52001 2.35161,0.26198 1.61659,-0.19205 2.29993,-1.33232 3.57638,-2.05952 z"
       id="path3864-6"
       inkscape:connector-curvature="0"
       sodipodi:nodetypes="cccccccc" />
    <path
       sodipodi:type="arc"
       style="fill:#000000;fill-opacity:1;stroke-width:7;stroke-linejoin:round;stroke-miterlimit:4;stroke-dasharray:none;display:inline"
       id="path3872-6"
       sodipodi:cx="315.43634"
       sodipodi:cy="412.7572"
       sodipodi:rx="6.5380049"
       sodipodi:ry="5.3289218"
       d="m 321.97435,412.7572 c 0,2.94308 -2.92717,5.32892 -6.53801,5.32892 -3.61084,0 -6.538,-2.38584 -6.538,-5.32892 0,-2.94308 2.92716,-5.32892 6.538,-5.32892 3.61084,0 6.53801,2.38584 6.53801,5.32892 z"
       transform="matrix(-0.1973629,0.008481,0.0089262,0.20121661,431.50148,343.30591)" />
  </g>
  <g
     inkscape:groupmode="layer"
     id="layer4"
     inkscape:label="brows"
     style="display:inline"
     transform="translate(-325.19215,-390.54135)">
    <path
       style="fill:none;stroke:#000000;stroke-width:2.57010937;stroke-linecap:round;stroke-linejoin:miter;stroke-miterlimit:4;stroke-opacity:1;stroke-dasharray:none"
       d="m 349.25311,425.93945 c 0.94896,-2.16259 3.83868,-0.93808 5.66775,-1.05313 1.92672,0.73076 3.37405,1.19274 6.21182,0.93127"
       id="path3896"
       inkscape:connector-curvature="0"
       sodipodi:nodetypes="ccc" />
    <path
       style="fill:none;stroke:#000000;stroke-width:2.57010937;stroke-linecap:round;stroke-linejoin:miter;stroke-miterlimit:4;stroke-opacity:1;stroke-dasharray:none"
       d="m 379.34626,425.72276 c -1.04389,-2.11982 -3.87659,-0.77242 -5.70899,-0.80883 -1.89254,0.81278 -3.31799,1.33645 -6.16468,1.19704"
       id="path3896-7"
       inkscape:connector-curvature="0"
       sodipodi:nodetypes="ccc" />
  </g>
  <g
     inkscape:groupmode="layer"
     id="layer10"
     inkscape:label="beard"
     transform="translate(-325.19215,-390.54135)">
    <path
       style="fill:#270000;fill-opacity:1;stroke:#000000;stroke-width:0.85670292;stroke-linecap:butt;stroke-linejoin:round;stroke-miterlimit:4;stroke-opacity:1;stroke-dasharray:none"
       d="m 354.82163,445.66972 c -0.47176,0.386 -0.79402,2.31821 -0.6084,3.46403 0.0384,2.62561 -0.26554,5.24884 -0.23421,7.86993 0.0983,1.6243 1.5132,2.69438 2.71322,3.59381 1.13071,0.76555 2.21386,1.69031 3.6262,1.87821 1.63351,0.49272 3.28071,0.99188 5.01258,0.89772 1.81555,0.21324 3.65852,0.26696 5.48125,0.15658 1.48397,-0.27519 2.98329,-0.90091 3.78298,-2.23532 0.74363,-1.16068 1.62934,-2.34234 1.66079,-3.78102 0.82899,-1.54531 0.83584,-3.36572 0.7885,-5.12071 0.25852,-1.42385 -0.69009,-2.51971 -1.05215,-3.81114 0.30816,-0.96246 -0.75342,-2.87705 -1.54879,-1.43601 -0.24204,1.35906 -0.82918,2.65947 -0.79144,4.06335 -0.28517,1.37521 -1.17253,2.70419 -0.66354,4.14793 0.36725,1.47446 0.26687,2.99091 0.26851,4.49331 -1.13462,0.83538 -2.44117,-0.22463 -3.38525,-0.85803 -1.32556,-1.1263 -1.92505,-2.78297 -2.56632,-4.32806 -0.60755,-1.45647 -2.56655,-0.62156 -2.96917,0.54669 -0.74633,1.19398 -0.18338,2.8322 -1.27126,3.88543 -0.51693,1.23347 -1.97364,2.17117 -3.08111,0.93846 -1.64881,-0.79189 -1.04879,-2.65352 -1.1362,-4.10474 -0.0161,-2.1848 -0.48795,-4.55544 -2.1425,-6.13719 -1.31764,-1.03859 0.01,-3.11529 -1.49328,-3.97415 -0.44704,-0.15576 -0.36446,0.0479 -0.39041,-0.14908 z"
       id="path4079"
       inkscape:connector-curvature="0" />
    <path
       sodipodi:type="arc"
       style="fill:#270000;fill-opacity:1;stroke-width:5;stroke-linecap:round;stroke-linejoin:round;stroke-miterlimit:4;stroke-dasharray:none"
       id="path4084"
       sodipodi:cx="288.20959"
       sodipodi:cy="514.27539"
       sodipodi:rx="2.6868515"
       sodipodi:ry="2.8659749"
       d="m 290.89645,514.27539 c 0,1.58283 -1.20295,2.86598 -2.68686,2.86598 -1.4839,0 -2.68685,-1.28315 -2.68685,-2.86598 0,-1.58283 1.20295,-2.86597 2.68685,-2.86597 1.48391,0 2.68686,1.28314 2.68686,2.86597 z"
       transform="matrix(0.17270919,0,0,0.16998286,301.11631,358.98244)" />
    <path
       sodipodi:type="arc"
       style="fill:#270000;fill-opacity:1;stroke-width:5;stroke-linecap:round;stroke-linejoin:round;stroke-miterlimit:4;stroke-dasharray:none"
       id="path4086"
       sodipodi:cx="297.70312"
       sodipodi:cy="520.00739"
       sodipodi:rx="2.5077279"
       sodipodi:ry="2.1494811"
       d="m 300.21085,520.00739 c 0,1.18712 -1.12275,2.14948 -2.50773,2.14948 -1.38497,0 -2.50772,-0.96236 -2.50772,-2.14948 0,-1.18713 1.12275,-2.14949 2.50772,-2.14949 1.38498,0 2.50773,0.96236 2.50773,2.14949 z"
       transform="matrix(0.17270919,0,0,0.16998286,301.11631,358.98244)" />
    <path
       sodipodi:type="arc"
       style="fill:#270000;fill-opacity:1;stroke-width:5;stroke-linecap:round;stroke-linejoin:round;stroke-miterlimit:4;stroke-dasharray:none"
       id="path4088"
       sodipodi:cx="290.35907"
       sodipodi:cy="532.00861"
       sodipodi:rx="3.0450983"
       sodipodi:ry="1.6121109"
       d="m 293.40417,532.00861 c 0,0.89034 -1.36334,1.61211 -3.0451,1.61211 -1.68176,0 -3.0451,-0.72177 -3.0451,-1.61211 0,-0.89035 1.36334,-1.61211 3.0451,-1.61211 1.68176,0 3.0451,0.72176 3.0451,1.61211 z"
       transform="matrix(0.17270919,0,0,0.16998286,301.11631,358.98244)" />
    <path
       sodipodi:type="arc"
       style="fill:#270000;fill-opacity:1;stroke-width:5;stroke-linecap:round;stroke-linejoin:round;stroke-miterlimit:4;stroke-dasharray:none"
       id="path4090"
       sodipodi:cx="299.49435"
       sodipodi:cy="547.95062"
       sodipodi:rx="2.1494811"
       sodipodi:ry="2.5077279"
       d="m 301.64384,547.95062 c 0,1.38498 -0.96236,2.50773 -2.14949,2.50773 -1.18712,0 -2.14948,-1.12275 -2.14948,-2.50773 0,-1.38498 0.96236,-2.50773 2.14948,-2.50773 1.18713,0 2.14949,1.12275 2.14949,2.50773 z"
       transform="matrix(0.17270919,0,0,0.16998286,301.11631,358.98244)" />
    <path
       sodipodi:type="arc"
       style="fill:#270000;fill-opacity:1;stroke-width:5;stroke-linecap:round;stroke-linejoin:round;stroke-miterlimit:4;stroke-dasharray:none"
       id="path4092"
       sodipodi:cx="350.9028"
       sodipodi:cy="567.11682"
       sodipodi:rx="1.9703577"
       sodipodi:ry="1.6121109"
       d="m 352.87316,567.11682 c 0,0.89035 -0.88216,1.61211 -1.97036,1.61211 -1.0882,0 -1.97036,-0.72176 -1.97036,-1.61211 0,-0.89034 0.88216,-1.61211 1.97036,-1.61211 1.0882,0 1.97036,0.72177 1.97036,1.61211 z"
       transform="matrix(0.17270919,0,0,0.16998286,301.11631,358.98244)" />
    <path
       sodipodi:type="arc"
       style="fill:#270000;fill-opacity:1;stroke-width:5;stroke-linecap:round;stroke-linejoin:round;stroke-miterlimit:4;stroke-dasharray:none"
       id="path4094"
       sodipodi:cx="348.0368"
       sodipodi:cy="582.34229"
       sodipodi:rx="2.3286045"
       sodipodi:ry="2.8659749"
       d="m 350.36541,582.34229 c 0,1.58283 -1.04255,2.86597 -2.32861,2.86597 -1.28605,0 -2.3286,-1.28314 -2.3286,-2.86597 0,-1.58284 1.04255,-2.86598 2.3286,-2.86598 1.28606,0 2.32861,1.28314 2.32861,2.86598 z"
       transform="matrix(0.17270919,0,0,0.16998286,301.11631,358.98244)" />
    <path
       sodipodi:type="arc"
       style="fill:#270000;fill-opacity:1;stroke-width:5;stroke-linecap:round;stroke-linejoin:round;stroke-miterlimit:4;stroke-dasharray:none"
       id="path4096"
       sodipodi:cx="405.71457"
       sodipodi:cy="572.3114"
       sodipodi:rx="1.9703577"
       sodipodi:ry="1.4329875"
       d="m 407.68493,572.3114 c 0,0.79142 -0.88216,1.43299 -1.97036,1.43299 -1.0882,0 -1.97036,-0.64157 -1.97036,-1.43299 0,-0.79142 0.88216,-1.43299 1.97036,-1.43299 1.0882,0 1.97036,0.64157 1.97036,1.43299 z"
       transform="matrix(0.17270919,0,0,0.16998286,301.11631,358.98244)" />
    <path
       sodipodi:type="arc"
       style="fill:#270000;fill-opacity:1;stroke-width:5;stroke-linecap:round;stroke-linejoin:round;stroke-miterlimit:4;stroke-dasharray:none"
       id="path4098"
       sodipodi:cx="450.85367"
       sodipodi:cy="529.50092"
       sodipodi:rx="0.53737026"
       sodipodi:ry="1.9703577"
       d="m 451.39104,529.50092 c 0,1.08819 -0.24059,1.97035 -0.53737,1.97035 -0.29678,0 -0.53737,-0.88216 -0.53737,-1.97035 0,-1.0882 0.24059,-1.97036 0.53737,-1.97036 0.29678,0 0.53737,0.88216 0.53737,1.97036 z"
       transform="matrix(0.17270919,0,0,0.16998286,301.11631,358.98244)" />
    <path
       sodipodi:type="arc"
       style="fill:#270000;fill-opacity:1;stroke-width:5;stroke-linecap:round;stroke-linejoin:round;stroke-miterlimit:4;stroke-dasharray:none"
       id="path4100"
       sodipodi:cx="455.86911"
       sodipodi:cy="521.08209"
       sodipodi:rx="1.9703577"
       sodipodi:ry="2.8659749"
       d="m 457.83947,521.08209 c 0,1.58284 -0.88216,2.86598 -1.97036,2.86598 -1.0882,0 -1.97036,-1.28314 -1.97036,-2.86598 0,-1.58283 0.88216,-2.86597 1.97036,-2.86597 1.0882,0 1.97036,1.28314 1.97036,2.86597 z"
       transform="matrix(0.17270919,0,0,0.16998286,301.11631,358.98244)" />
    <path
       sodipodi:type="arc"
       style="fill:#270000;fill-opacity:1;stroke-width:5;stroke-linecap:round;stroke-linejoin:round;stroke-miterlimit:4;stroke-dasharray:none"
       id="path4102"
       sodipodi:cx="447.62946"
       sodipodi:cy="520.3656"
       sodipodi:rx="1.9703577"
       sodipodi:ry="1.4329875"
       d="m 449.59981,520.3656 c 0,0.79142 -0.88216,1.43299 -1.97035,1.43299 -1.0882,0 -1.97036,-0.64157 -1.97036,-1.43299 0,-0.79142 0.88216,-1.43299 1.97036,-1.43299 1.08819,0 1.97035,0.64157 1.97035,1.43299 z"
       transform="matrix(0.17270919,0,0,0.16998286,301.11631,358.98244)" />
    <path
       sodipodi:type="arc"
       style="fill:#270000;fill-opacity:1;stroke-width:5;stroke-linecap:round;stroke-linejoin:round;stroke-miterlimit:4;stroke-dasharray:none"
       id="path4104"
       sodipodi:cx="450.13718"
       sodipodi:cy="509.08084"
       sodipodi:rx="2.6868515"
       sodipodi:ry="1.6121109"
       d="m 452.82403,509.08084 c 0,0.89035 -1.20295,1.61211 -2.68685,1.61211 -1.48391,0 -2.68685,-0.72176 -2.68685,-1.61211 0,-0.89034 1.20294,-1.61211 2.68685,-1.61211 1.4839,0 2.68685,0.72177 2.68685,1.61211 z"
       transform="matrix(0.17270919,0,0,0.16998286,301.11631,358.98244)" />
  </g>
  <g
     inkscape:groupmode="layer"
     id="layer9"
     inkscape:label="hair"
     transform="translate(-325.19215,-390.54135)">
    <path
       style="fill:#270000;fill-opacity:1;stroke:#000000;stroke-width:0.85670292;stroke-linecap:butt;stroke-linejoin:round;stroke-miterlimit:4;stroke-opacity:1;stroke-dasharray:none"
       d="m 345.16956,424.59977 c -0.96758,-0.61511 -3.93602,-1.44654 -2.52577,-2.84358 1.40261,-0.40142 -1.49113,-1.96677 0.41183,-2.42319 0.17299,-0.71467 -0.31142,-2.91641 1.507,-2.41865 1.59705,0.1991 3.34151,1.16612 4.00788,2.62189 -0.0633,0.74663 -1.21839,0.31154 -0.53186,1.17352 0.55395,0.93596 0.003,1.8087 -0.90737,2.01674 -0.19164,1.22363 0.4026,2.83756 -1.96171,1.87327 z"
       id="path4029"
       inkscape:connector-curvature="0" />
    <path
       style="fill:#270000;fill-opacity:1;stroke:#000000;stroke-width:0.85670292;stroke-linecap:butt;stroke-linejoin:round;stroke-miterlimit:4;stroke-opacity:1;stroke-dasharray:none"
       d="m 383.16266,424.79977 c 0.96754,-0.61511 3.93602,-1.44652 2.52568,-2.84357 -1.40251,-0.40141 1.49123,-1.96673 -0.41176,-2.42319 -0.17305,-0.71467 0.31139,-2.91639 -1.50697,-2.41862 -1.59705,0.19909 -3.34151,1.16615 -4.0079,2.62186 0.0632,0.74663 1.21841,0.31156 0.53184,1.17356 -0.55394,0.93593 -0.003,1.80865 0.90736,2.01669 0.19164,1.22364 -0.40263,2.83756 1.96175,1.87327 z"
       id="path4029-3"
       inkscape:connector-curvature="0" />
    <path
       style="fill:#270000;fill-opacity:1;stroke:#000000;stroke-width:0.85670292;stroke-linecap:butt;stroke-linejoin:round;stroke-miterlimit:4;stroke-opacity:1;stroke-dasharray:none"
       d="m 363.7233,401.06484 c -1.71136,0.0669 -3.5295,-0.22466 -5.12987,0.53181 -0.50571,0.23515 -1.14452,0.62573 -0.97251,1.27378 0.13303,0.69529 0.69168,1.30493 0.56535,2.04439 0.20187,0.76406 1.08981,0.92177 1.66769,1.31784 0.45853,0.38607 0.70455,0.92452 1.34686,1.08493 0.75438,0.35833 1.5207,0.71045 2.19386,1.20548 0.76276,0.39047 1.63352,-0.024 2.21176,-0.54382 0.55797,-0.48539 1.02628,-1.07197 1.66902,-1.4592 0.72249,-0.48638 1.56279,-1.04384 1.70632,-1.96501 0.078,-0.84456 0.43169,-1.77904 -0.0335,-2.57191 -0.35073,-0.46943 -0.94924,-0.67391 -1.49599,-0.83731 -1.1031,-0.26742 -2.25062,-0.15829 -3.37284,-0.13059 -0.11937,0.012 -0.23753,0.032 -0.3561,0.0494 z"
       id="path4071"
       inkscape:connector-curvature="0" />
    <path
       sodipodi:type="arc"
       style="fill:#270000;fill-opacity:1;stroke-width:5;stroke-linecap:round;stroke-linejoin:round;stroke-miterlimit:4;stroke-dasharray:none"
       id="path4106"
       sodipodi:cx="295.87634"
       sodipodi:cy="308.61826"
       sodipodi:rx="3.0398254"
       sodipodi:ry="2.0265503"
       d="m 298.91617,308.61826 c 0,1.11923 -1.36098,2.02655 -3.03983,2.02655 -1.67885,0 -3.03982,-0.90732 -3.03982,-2.02655 0,-1.11924 1.36097,-2.02655 3.03982,-2.02655 1.67885,0 3.03983,0.90731 3.03983,2.02655 z"
       transform="matrix(0.17270919,0,0,0.16998286,301.11631,358.98244)" />
    <path
       sodipodi:type="arc"
       style="fill:#270000;fill-opacity:1;stroke-width:5;stroke-linecap:round;stroke-linejoin:round;stroke-miterlimit:4;stroke-dasharray:none"
       id="path4108"
       sodipodi:cx="319.68829"
       sodipodi:cy="294.93903"
       sodipodi:rx="2.5331879"
       sodipodi:ry="1.5199127"
       d="m 322.22148,294.93903 c 0,0.83942 -1.13415,1.51991 -2.53319,1.51991 -1.39904,0 -2.53318,-0.68049 -2.53318,-1.51991 0,-0.83943 1.13414,-1.51992 2.53318,-1.51992 1.39904,0 2.53319,0.68049 2.53319,1.51992 z"
       transform="matrix(0.17270919,0,0,0.16998286,301.11631,358.98244)" />
    <path
       sodipodi:type="arc"
       style="fill:#270000;fill-opacity:1;stroke-width:5;stroke-linecap:round;stroke-linejoin:round;stroke-miterlimit:4;stroke-dasharray:none"
       id="path4110"
       sodipodi:cx="297.90289"
       sodipodi:cy="288.85938"
       sodipodi:rx="2.0265503"
       sodipodi:ry="1.5199127"
       d="m 299.92944,288.85937 c 0,0.83943 -0.90731,1.51992 -2.02655,1.51992 -1.11923,0 -2.02655,-0.68049 -2.02655,-1.51992 0,-0.83942 0.90732,-1.51991 2.02655,-1.51991 1.11924,0 2.02655,0.68049 2.02655,1.51991 z"
       transform="matrix(0.17270919,0,0,0.16998286,301.11631,358.98244)" />
    <path
       sodipodi:type="arc"
       style="fill:#270000;fill-opacity:1;stroke-width:5;stroke-linecap:round;stroke-linejoin:round;stroke-miterlimit:4;stroke-dasharray:none"
       id="path4118"
       sodipodi:cx="410.37643"
       sodipodi:cy="303.55188"
       sodipodi:rx="2.0265503"
       sodipodi:ry="1.0132751"
       d="m 412.40298,303.55188 c 0,0.55962 -0.90731,1.01328 -2.02655,1.01328 -1.11923,0 -2.02655,-0.45366 -2.02655,-1.01328 0,-0.55962 0.90732,-1.01328 2.02655,-1.01328 1.11924,0 2.02655,0.45366 2.02655,1.01328 z"
       transform="matrix(0.17270919,0,0,0.16998286,301.11631,358.98244)" />
    <path
       sodipodi:type="arc"
       style="fill:#270000;fill-opacity:1;stroke-width:5;stroke-linecap:round;stroke-linejoin:round;stroke-miterlimit:4;stroke-dasharray:none"
       id="path4120"
       sodipodi:cx="408.85651"
       sodipodi:cy="281.25983"
       sodipodi:rx="5.5730133"
       sodipodi:ry="4.0531006"
       d="m 414.42952,281.25983 c 0,2.23846 -2.49512,4.0531 -5.57301,4.0531 -3.07789,0 -5.57302,-1.81464 -5.57302,-4.0531 0,-2.23847 2.49513,-4.0531 5.57302,-4.0531 3.07789,0 5.57301,1.81463 5.57301,4.0531 z"
       transform="matrix(0.17270919,0,0,0.16998286,301.11631,358.98244)" />
    <path
       sodipodi:type="arc"
       style="fill:#270000;fill-opacity:1;stroke-width:5;stroke-linecap:round;stroke-linejoin:round;stroke-miterlimit:4;stroke-dasharray:none"
       id="path4122"
       sodipodi:cx="437.73486"
       sodipodi:cy="314.19125"
       sodipodi:rx="3.0398254"
       sodipodi:ry="4.5597382"
       d="m 440.77469,314.19125 c 0,2.51828 -1.36098,4.55974 -3.03983,4.55974 -1.67885,0 -3.03982,-2.04146 -3.03982,-4.55974 0,-2.51827 1.36097,-4.55973 3.03982,-4.55973 1.67885,0 3.03983,2.04146 3.03983,4.55973 z"
       transform="matrix(0.17270919,0,0,0.16998286,301.11631,358.98244)" />
    <path
       sodipodi:type="arc"
       style="fill:#270000;fill-opacity:1;stroke-width:5;stroke-linecap:round;stroke-linejoin:round;stroke-miterlimit:4;stroke-dasharray:none"
       id="path4124"
       sodipodi:cx="385.55118"
       sodipodi:cy="314.19125"
       sodipodi:rx="3.5464628"
       sodipodi:ry="1.5199127"
       d="m 389.09764,314.19125 c 0,0.83943 -1.5878,1.51992 -3.54646,1.51992 -1.95866,0 -3.54646,-0.68049 -3.54646,-1.51992 0,-0.83942 1.5878,-1.51991 3.54646,-1.51991 1.95866,0 3.54646,0.68049 3.54646,1.51991 z"
       transform="matrix(0.17270919,0,0,0.16998286,301.11631,358.98244)" />
  </g>
  <g
     inkscape:groupmode="layer"
     id="layer11"
     inkscape:label="tattoo"
     style="opacity:0.75"
     transform="translate(-325.19215,-390.54135)">
    <path
       style="fill:none;stroke:#000032;stroke-width:2.05608773;stroke-linecap:butt;stroke-linejoin:round;stroke-miterlimit:4;stroke-opacity:1;stroke-dasharray:none"
       d="m 378.02384,430.26308 c -0.80752,1.10175 -1.77604,2.30255 -3.21939,2.55048 -1.29046,0.58261 -2.78984,0.0276 -4.0801,0.59751 0.87916,1.69093 0.76527,3.64362 1.16781,5.45795 0.0746,1.48063 0.27345,3.09465 -0.55057,4.42573"
       id="path4127"
       inkscape:connector-curvature="0" />
    <path
       style="fill:none;stroke:#000032;stroke-width:2.05608773;stroke-linecap:butt;stroke-linejoin:round;stroke-miterlimit:4;stroke-opacity:1;stroke-dasharray:none"
       d="m 374.55899,434.3431 c 0.97424,0.8101 1.0777,2.19192 0.83449,3.34361 -0.13315,0.93827 -0.70127,1.82168 -0.48419,2.79228 0.14503,0.8355 0.56433,1.58881 0.82526,2.3895"
       id="path4137"
       inkscape:connector-curvature="0" />
    <path
       style="fill:none;stroke:#000032;stroke-width:2.05608773;stroke-linecap:butt;stroke-linejoin:round;stroke-miterlimit:4;stroke-opacity:1;stroke-dasharray:none"
       d="m 377.46698,432.3335 c 1.03892,1.33772 1.39007,3.08854 1.23945,4.74167 0.21912,1.67097 -0.57452,3.27818 -0.42362,4.94843 -0.0211,1.26124 -0.27604,2.75779 0.79285,3.70701"
       id="path4139"
       inkscape:connector-curvature="0" />
  </g>
</svg>
