<?xml version="1.0" encoding="UTF-8" standalone="no"?>
<!-- Created with Inkscape (http://www.inkscape.org/) -->

<svg
   xmlns:dc="http://purl.org/dc/elements/1.1/"
   xmlns:cc="http://creativecommons.org/ns#"
   xmlns:rdf="http://www.w3.org/1999/02/22-rdf-syntax-ns#"
   xmlns:svg="http://www.w3.org/2000/svg"
   xmlns="http://www.w3.org/2000/svg"
   xmlns:sodipodi="http://sodipodi.sourceforge.net/DTD/sodipodi-0.dtd"
   xmlns:inkscape="http://www.inkscape.org/namespaces/inkscape"
   width="64"
   height="64"
   id="svg2"
   version="1.1"
   inkscape:version="0.47 r22583"
   sodipodi:docname="human01.svg"
   style="display:inline">
  <defs
     id="defs4">
    <inkscape:perspective
       sodipodi:type="inkscape:persp3d"
       inkscape:vp_x="0 : 34.001499 : 1"
       inkscape:vp_y="0 : 1000 : 0"
       inkscape:vp_z="63.277798 : 34.001499 : 1"
       inkscape:persp3d-origin="31.638899 : 22.667666 : 1"
       id="perspective61" />
  </defs>
  <sodipodi:namedview
     id="base"
     pagecolor="#ffffff"
     bordercolor="#666666"
     borderopacity="1.0"
     inkscape:pageopacity="0.0"
     inkscape:pageshadow="2"
     inkscape:zoom="5.6568542"
     inkscape:cx="27.77053"
     inkscape:cy="30.001305"
     inkscape:document-units="px"
     inkscape:current-layer="layer2"
     showgrid="false"
     inkscape:object-paths="false"
     inkscape:window-width="1440"
     inkscape:window-height="730"
     inkscape:window-x="0"
     inkscape:window-y="25"
     inkscape:window-maximized="1"
     fit-margin-top="10"
     fit-margin-left="10"
     fit-margin-right="10"
     fit-margin-bottom="10">
    <inkscape:grid
       type="xygrid"
       id="grid2867"
       empspacing="5"
       visible="true"
       enabled="true"
       snapvisiblegridlinesonly="true" />
  </sodipodi:namedview>
  <metadata
     id="metadata7">
    <rdf:RDF>
      <cc:Work
         rdf:about="">
        <dc:format>image/svg+xml</dc:format>
        <dc:type
           rdf:resource="http://purl.org/dc/dcmitype/StillImage" />
        <dc:title />
      </cc:Work>
    </rdf:RDF>
  </metadata>
  <g
     inkscape:groupmode="layer"
     id="layer2"
     inkscape:label="face"
     style="display:inline"
     transform="translate(-335.19215,-400.40067)">
    <g
       id="g3815"
       transform="matrix(0.12982535,0,0,0.12777598,338.03627,376.25585)"
       style="stroke-width:11.67265606;stroke-miterlimit:4;stroke-dasharray:none">
      <g
         id="g3821"
         style="stroke-width:11.67265606;stroke-miterlimit:4;stroke-dasharray:none">
        <path
           sodipodi:nodetypes="ssscssscs"
           inkscape:connector-curvature="0"
           d="m 141.34908,546.19546 c -17.1726,-25.25381 -10.06138,-42.35414 -10.06138,-54.47597 0,-20.20305 -19.28606,-68.50968 -19.16077,-142.42348 0.0344,-20.30141 32.34093,-81.86251 113.15275,-85.90312 68.78635,-0.97 109.15804,62.60337 109.19245,82.90478 0.12529,73.9138 -8.13742,124.22468 -8.13742,144.42773 0,12.12183 11.11971,27.21791 -6.05289,52.47172 -10.92607,16.06774 -24.63712,86.91328 -81.87577,76.96271 -56.23653,11.07795 -86.1309,-57.89663 -97.05697,-73.96437 z"
           style="fill:#ffefd4;fill-opacity:1;stroke:#000000;stroke-width:11.67265606;stroke-linecap:butt;stroke-linejoin:round;stroke-miterlimit:4;stroke-opacity:1;stroke-dasharray:none"
           id="path3812" />
      </g>
    </g>
  </g>
  <g
     inkscape:groupmode="layer"
     id="layer8"
     inkscape:label="ears"
     transform="translate(-335.19215,-400.40067)">
    <path
       style="fill:#ffefd4;fill-opacity:1;stroke:#000000;stroke-width:0.90157628;stroke-linecap:butt;stroke-linejoin:miter;stroke-miterlimit:4;stroke-opacity:1;stroke-dasharray:none;display:inline"
       d="m 352.41499,429.32393 c -0.69029,-1.29098 -2.03327,-2.32133 -3.55679,-2.34145 -1.52435,-0.27929 -3.03844,1.156 -2.83587,2.66109 0.18468,1.40622 1.00643,2.64198 1.90195,3.70997 1.11819,0.84796 2.24345,1.97933 2.33445,3.44474 0.0455,1.0597 -0.12766,2.11385 -0.11386,3.1732 0.0351,0.71677 0.2321,1.67365 1.07433,1.8377 0.98212,0.21137 1.91684,-0.34055 2.72033,-0.82916 0.24744,-0.17871 0.46424,-0.41905 0.54732,-0.71571"
       id="path3837"
       inkscape:connector-curvature="0" />
    <path
       style="fill:#ffefd4;fill-opacity:1;stroke:#000000;stroke-width:0.90157628;stroke-linecap:butt;stroke-linejoin:miter;stroke-miterlimit:4;stroke-opacity:1;stroke-dasharray:none;display:inline"
       d="m 381.99728,428.98745 c 0.52047,-1.36594 1.72164,-2.55384 3.23057,-2.76174 1.47675,-0.4651 3.16169,0.77206 3.15237,2.29029 -0.005,1.4179 -0.66207,2.7453 -1.41448,3.91533 -1.00143,0.9792 -1.97371,2.24047 -1.87743,3.70555 0.0899,1.05695 0.39594,2.08142 0.51704,3.13411 0.0564,0.71547 -0.0171,1.68909 -0.83183,1.95578 -0.94746,0.33082 -1.94507,-0.10141 -2.80446,-0.48708 -0.26823,-0.14671 -0.51401,-0.35845 -0.63419,-0.64256"
       id="path3837-8"
       inkscape:connector-curvature="0" />
    <path
       style="fill:none;stroke:#000000;stroke-width:0.64398289;stroke-linecap:round;stroke-linejoin:miter;stroke-miterlimit:4;stroke-opacity:1;stroke-dasharray:none"
       d="m 347.28608,429.87123 c -0.1026,-1.62962 2.24491,-1.18919 2.83268,-0.18779 0.91592,1.17828 -0.0554,2.88621 0.92707,4.01339 l 0.19138,0.1257 0.23468,0.077"
       id="path3990"
       inkscape:connector-curvature="0" />
    <path
       style="fill:none;stroke:#000000;stroke-width:0.64398289;stroke-linecap:round;stroke-linejoin:miter;stroke-miterlimit:4;stroke-opacity:1;stroke-dasharray:none"
       d="m 387.14308,429.77174 c 0.10261,-1.6296 -2.24489,-1.18915 -2.83269,-0.18775 -0.91593,1.17826 0.0554,2.88618 -0.92707,4.01336 l -0.19135,0.12571 -0.23471,0.077"
       id="path3990-7"
       inkscape:connector-curvature="0" />
  </g>
  <g
     inkscape:groupmode="layer"
     id="layer7"
     inkscape:label="mouth"
     transform="translate(-335.19215,-400.40067)">
    <path
       style="fill:none;stroke:#000000;stroke-width:1.03037262;stroke-linecap:round;stroke-linejoin:miter;stroke-miterlimit:4;stroke-opacity:1;stroke-dasharray:none"
       d="m 362.35513,443.32915 c 0.54367,-0.7375 1.56348,-0.73827 2.32313,-1.14061 0.53936,-0.20004 1.13424,-0.14656 1.68189,-0.31259 0.64825,-0.0632 1.31651,0.083 1.94988,-0.11221 0.67186,0.0924 1.3368,-0.15268 2.01131,-0.0797 0.78136,0.03 1.56277,0.10021 2.33989,0.17619 0.62827,0.1101 1.2221,0.34776 1.81731,0.56607 0.14251,0.0555 0.51036,-0.15077 0.52722,0.0789"
       id="path3956"
       inkscape:connector-curvature="0" />
    <path
       style="fill:none;stroke:#000000;stroke-width:1.03037262;stroke-linecap:round;stroke-linejoin:miter;stroke-miterlimit:4;stroke-opacity:1;stroke-dasharray:none"
       d="m 364.02947,443.78694 c 1.23782,0.28305 2.51921,0.16387 3.77677,0.17141 0.88617,-0.0322 1.77326,0.2436 2.6555,0.0429 0.57534,-0.1736 1.22658,-0.0283 1.71235,-0.44278 0.15865,-0.0834 0.31363,-0.24472 0.50617,-0.22942"
       id="path3958"
       inkscape:connector-curvature="0" />
  </g>
  <g
     inkscape:groupmode="layer"
     id="layer5"
     inkscape:label="nose"
     style="display:inline"
     transform="translate(-335.19215,-400.40067)">
    <path
       style="fill:none;stroke:#000000;stroke-width:0.64398289;stroke-linecap:round;stroke-linejoin:miter;stroke-miterlimit:4;stroke-opacity:1;stroke-dasharray:none"
       d="m 360.30871,440.85731 c 0.012,-1.57525 1.16469,-2.89779 2.24807,-3.94026 1.09579,-1.41954 2.10054,0.26751 1.19034,1.32591 -0.2049,1.16933 1.06004,1.9658 2.08782,2.08783 1.32515,-0.1648 2.51409,1.06414 3.76753,0.0989 0.95341,-1.16233 3.21206,0.2711 3.7879,-1.47953 0.37138,-1.34107 -1.19565,-1.9808 -1.28428,-3.17454 1.17909,-0.6487 2.31508,0.9073 3.45198,1.16683 0.30096,0.30845 0.41953,0.75008 0.37787,1.16837"
       id="path3926"
       inkscape:connector-curvature="0" />
    <path
       style="fill:none;stroke:#000000;stroke-width:0.64398289;stroke-linecap:round;stroke-linejoin:miter;stroke-miterlimit:4;stroke-opacity:1;stroke-dasharray:none"
       d="m 365.61082,430.23743 c -0.95476,1.27832 0.0105,2.70416 0.15514,4.08427 0.13816,0.95108 0.87991,1.6721 1.0541,2.59895"
       id="path3928"
       inkscape:connector-curvature="0" />
    <path
       style="fill:none;stroke:#000000;stroke-width:0.64398289;stroke-linecap:round;stroke-linejoin:miter;stroke-miterlimit:4;stroke-opacity:1;stroke-dasharray:none"
       d="m 369.61066,437.37839 c 0.53225,-1.67381 0.17587,-3.46198 0.27905,-5.18601 0.0156,-0.86044 -0.002,-2.2373 -0.93023,-2.59582"
       id="path3930"
       inkscape:connector-curvature="0" />
    <path
       style="fill:none;stroke:#000000;stroke-width:0.64398289;stroke-linecap:round;stroke-linejoin:miter;stroke-miterlimit:4;stroke-opacity:1;stroke-dasharray:none"
       d="m 366.63407,428.5895 c 0.37208,0 0.74409,0 1.11617,0"
       id="path3932"
       inkscape:connector-curvature="0" />
    <path
       sodipodi:type="arc"
       style="fill:#000000;fill-opacity:1;stroke-width:5;stroke-linecap:round;stroke-linejoin:round;stroke-miterlimit:4;stroke-dasharray:none"
       id="path3946"
       sodipodi:cx="357.17212"
       sodipodi:cy="491.34763"
       sodipodi:rx="7.5231838"
       sodipodi:ry="3.5824685"
       d="m 364.6953,491.34763 a 7.5231838,3.5824685 0 1 1 -15.04636,0 7.5231838,3.5824685 0 1 1 15.04636,0 z"
       transform="matrix(0.12982535,0,0,0.12777598,319.93848,377.15936)" />
    <path
       sodipodi:type="arc"
       style="fill:#000000;fill-opacity:1;stroke-width:5;stroke-linecap:round;stroke-linejoin:round;stroke-miterlimit:4;stroke-dasharray:none"
       id="path3948"
       sodipodi:cx="385.83185"
       sodipodi:cy="490.27286"
       sodipodi:rx="8.2396774"
       sodipodi:ry="3.2242217"
       d="m 394.07153,490.27286 a 8.2396774,3.2242217 0 1 1 -16.47936,0 8.2396774,3.2242217 0 1 1 16.47936,0 z"
       transform="matrix(0.12982535,0,0,0.12777598,319.93848,377.15936)" />
  </g>
  <g
     inkscape:groupmode="layer"
     id="layer3"
     inkscape:label="eyes"
     style="display:inline"
     transform="translate(-335.19215,-400.40067)">
    <path
       style="fill:#ffffff;fill-opacity:1;stroke:#000000;stroke-width:0.90157628;stroke-linecap:butt;stroke-linejoin:round;stroke-miterlimit:4;stroke-opacity:1;stroke-dasharray:none"
       d="m 357.94841,429.20748 c 0.59214,-0.20019 0.90449,-0.3863 1.54842,-0.36556 1.08455,-0.005 2.00632,-0.0659 3.07924,0.13666 0.56738,0.38947 1.71989,0.34843 0.64638,0.89152 -0.55289,0.30673 -0.68208,0.4989 -1.274,0.80501 -0.56348,0.21232 -1.13331,0.43998 -1.7573,0.27263 -1.22043,-0.092 -1.7716,-0.92634 -2.75437,-1.43127 z"
       id="path3864"
       inkscape:connector-curvature="0"
       sodipodi:nodetypes="cccccccc" />
    <path
       sodipodi:type="arc"
       style="fill:#000000;fill-opacity:1;stroke-width:7;stroke-linejoin:round;stroke-miterlimit:4;stroke-dasharray:none"
       id="path3872"
       sodipodi:cx="315.43634"
       sodipodi:cy="412.7572"
       sodipodi:rx="6.5380049"
       sodipodi:ry="5.3289218"
       d="m 321.97435,412.7572 a 6.5380049,5.3289218 0 1 1 -13.07601,0 6.5380049,5.3289218 0 1 1 13.07601,0 z"
       transform="matrix(0.14849886,0,0,0.15139845,313.67028,367.28316)" />
    <path
       style="fill:#ffffff;fill-opacity:1;stroke:#000000;stroke-width:0.90157628;stroke-linecap:butt;stroke-linejoin:round;stroke-miterlimit:4;stroke-opacity:1;stroke-dasharray:none;display:inline"
       d="m 376.45733,429.14164 c -0.60046,-0.17455 -0.92075,-0.34714 -1.56315,-0.29873 -1.08375,0.0412 -2.0073,0.0208 -3.07027,0.26874 -0.54957,0.41347 -1.7028,0.42192 -0.60625,0.91847 0.56596,0.28263 0.70353,0.46912 1.30846,0.74949 0.57235,0.18793 1.15182,0.39089 1.76771,0.19693 1.21518,-0.14431 1.72884,-1.00151 2.68836,-1.54814 z"
       id="path3864-6"
       inkscape:connector-curvature="0"
       sodipodi:nodetypes="cccccccc" />
    <path
       sodipodi:type="arc"
       style="fill:#000000;fill-opacity:1;stroke-width:7;stroke-linejoin:round;stroke-miterlimit:4;stroke-dasharray:none;display:inline"
       id="path3872-6"
       sodipodi:cx="315.43634"
       sodipodi:cy="412.7572"
       sodipodi:rx="6.5380049"
       sodipodi:ry="5.3289218"
       d="m 321.97435,412.7572 a 6.5380049,5.3289218 0 1 1 -13.07601,0 6.5380049,5.3289218 0 1 1 13.07601,0 z"
       transform="matrix(-0.14835754,0.00637516,0.00670981,0.15125437,417.9489,365.37533)" />
  </g>
  <g
     inkscape:groupmode="layer"
     id="layer4"
     inkscape:label="brows"
     style="display:inline"
     transform="translate(-335.19215,-400.40067)">
    <path
       style="fill:none;stroke:#000000;stroke-width:1.93194914;stroke-linecap:round;stroke-linejoin:miter;stroke-miterlimit:4;stroke-opacity:1;stroke-dasharray:none"
       d="m 356.12285,427.49089 c 0.71334,-1.6256 2.88555,-0.70515 4.26045,-0.79163 1.44831,0.54931 2.53627,0.89658 4.66943,0.70004"
       id="path3896"
       inkscape:connector-curvature="0"
       sodipodi:nodetypes="ccc" />
    <path
       style="fill:none;stroke:#000000;stroke-width:1.93194914;stroke-linecap:round;stroke-linejoin:miter;stroke-miterlimit:4;stroke-opacity:1;stroke-dasharray:none"
       d="m 378.74386,427.32801 c -0.78468,-1.59347 -2.91404,-0.58062 -4.29145,-0.608 -1.42262,0.61097 -2.49412,1.00461 -4.63397,0.89982"
       id="path3896-7"
       inkscape:connector-curvature="0"
       sodipodi:nodetypes="ccc" />
  </g>
  <g
     inkscape:groupmode="layer"
     id="layer10"
     inkscape:label="beard"
     transform="translate(-335.19215,-400.40067)">
    <path
       style="fill:#270000;fill-opacity:1;stroke:#000000;stroke-width:0.64398289;stroke-linecap:butt;stroke-linejoin:round;stroke-miterlimit:4;stroke-opacity:1;stroke-dasharray:none"
       d="m 360.30871,442.32212 c -0.35462,0.29017 -0.59685,1.7426 -0.45733,2.60391 0.029,1.97367 -0.19962,3.94556 -0.17607,5.91582 0.074,1.22098 1.13748,2.02536 2.03953,2.70147 0.84995,0.57547 1.66416,1.27061 2.72582,1.41184 1.22792,0.37039 2.46611,0.74561 3.76795,0.67482 1.36474,0.1603 2.75011,0.20068 4.12025,0.11776 1.1155,-0.20687 2.24253,-0.67722 2.84367,-1.6803 0.55898,-0.87247 1.22478,-1.76074 1.24842,-2.84219 0.62314,-1.16161 0.6283,-2.53001 0.59272,-3.84924 0.19432,-1.0703 -0.51875,-1.89406 -0.79091,-2.86481 0.23164,-0.7235 -0.56635,-2.16269 -1.16423,-1.07946 -0.18194,1.02161 -0.62328,1.99912 -0.59493,3.05442 -0.21435,1.03374 -0.88138,2.03273 -0.49878,3.11799 0.27607,1.10836 0.20062,2.24826 0.20185,3.37762 -0.8529,0.62796 -1.83504,-0.16885 -2.5447,-0.64498 -0.99642,-0.84665 -1.44705,-2.09197 -1.92909,-3.2534 -0.4567,-1.09483 -1.92927,-0.46722 -2.23193,0.41095 -0.56102,0.89751 -0.13786,2.12895 -0.95561,2.92067 -0.38856,0.92721 -1.48357,1.63207 -2.31606,0.70543 -1.23941,-0.59525 -0.78838,-1.99464 -0.85408,-3.08551 -0.012,-1.64232 -0.36679,-3.42432 -1.61052,-4.61333 -0.99047,-0.78071 0.007,-2.34176 -1.12249,-2.98737 -0.33605,-0.11701 -0.27398,0.036 -0.29348,-0.11206 z"
       id="path4079"
       inkscape:connector-curvature="0" />
    <path
       sodipodi:type="arc"
       style="fill:#270000;fill-opacity:1;stroke-width:5;stroke-linecap:round;stroke-linejoin:round;stroke-miterlimit:4;stroke-dasharray:none"
       id="path4084"
       sodipodi:cx="288.20959"
       sodipodi:cy="514.27539"
       sodipodi:rx="2.6868515"
       sodipodi:ry="2.8659749"
       d="m 290.89645,514.27539 a 2.6868515,2.8659749 0 1 1 -5.37371,0 2.6868515,2.8659749 0 1 1 5.37371,0 z"
       transform="matrix(0.12982535,0,0,0.12777598,319.93848,377.15936)" />
    <path
       sodipodi:type="arc"
       style="fill:#270000;fill-opacity:1;stroke-width:5;stroke-linecap:round;stroke-linejoin:round;stroke-miterlimit:4;stroke-dasharray:none"
       id="path4086"
       sodipodi:cx="297.70312"
       sodipodi:cy="520.00739"
       sodipodi:rx="2.5077279"
       sodipodi:ry="2.1494811"
       d="m 300.21085,520.00739 a 2.5077279,2.1494811 0 1 1 -5.01545,0 2.5077279,2.1494811 0 1 1 5.01545,0 z"
       transform="matrix(0.12982535,0,0,0.12777598,319.93848,377.15936)" />
    <path
       sodipodi:type="arc"
       style="fill:#270000;fill-opacity:1;stroke-width:5;stroke-linecap:round;stroke-linejoin:round;stroke-miterlimit:4;stroke-dasharray:none"
       id="path4088"
       sodipodi:cx="290.35907"
       sodipodi:cy="532.00861"
       sodipodi:rx="3.0450983"
       sodipodi:ry="1.6121109"
       d="m 293.40417,532.00861 a 3.0450983,1.6121109 0 1 1 -6.0902,0 3.0450983,1.6121109 0 1 1 6.0902,0 z"
       transform="matrix(0.12982535,0,0,0.12777598,319.93848,377.15936)" />
    <path
       sodipodi:type="arc"
       style="fill:#270000;fill-opacity:1;stroke-width:5;stroke-linecap:round;stroke-linejoin:round;stroke-miterlimit:4;stroke-dasharray:none"
       id="path4090"
       sodipodi:cx="299.49435"
       sodipodi:cy="547.95062"
       sodipodi:rx="2.1494811"
       sodipodi:ry="2.5077279"
       d="m 301.64384,547.95062 a 2.1494811,2.5077279 0 1 1 -4.29897,0 2.1494811,2.5077279 0 1 1 4.29897,0 z"
       transform="matrix(0.12982535,0,0,0.12777598,319.93848,377.15936)" />
    <path
       sodipodi:type="arc"
       style="fill:#270000;fill-opacity:1;stroke-width:5;stroke-linecap:round;stroke-linejoin:round;stroke-miterlimit:4;stroke-dasharray:none"
       id="path4092"
       sodipodi:cx="350.9028"
       sodipodi:cy="567.11682"
       sodipodi:rx="1.9703577"
       sodipodi:ry="1.6121109"
       d="m 352.87316,567.11682 a 1.9703577,1.6121109 0 1 1 -3.94072,0 1.9703577,1.6121109 0 1 1 3.94072,0 z"
       transform="matrix(0.12982535,0,0,0.12777598,319.93848,377.15936)" />
    <path
       sodipodi:type="arc"
       style="fill:#270000;fill-opacity:1;stroke-width:5;stroke-linecap:round;stroke-linejoin:round;stroke-miterlimit:4;stroke-dasharray:none"
       id="path4094"
       sodipodi:cx="348.0368"
       sodipodi:cy="582.34229"
       sodipodi:rx="2.3286045"
       sodipodi:ry="2.8659749"
       d="m 350.36541,582.34229 a 2.3286045,2.8659749 0 1 1 -4.65721,0 2.3286045,2.8659749 0 1 1 4.65721,0 z"
       transform="matrix(0.12982535,0,0,0.12777598,319.93848,377.15936)" />
    <path
       sodipodi:type="arc"
       style="fill:#270000;fill-opacity:1;stroke-width:5;stroke-linecap:round;stroke-linejoin:round;stroke-miterlimit:4;stroke-dasharray:none"
       id="path4096"
       sodipodi:cx="405.71457"
       sodipodi:cy="572.3114"
       sodipodi:rx="1.9703577"
       sodipodi:ry="1.4329875"
       d="m 407.68493,572.3114 a 1.9703577,1.4329875 0 1 1 -3.94072,0 1.9703577,1.4329875 0 1 1 3.94072,0 z"
       transform="matrix(0.12982535,0,0,0.12777598,319.93848,377.15936)" />
    <path
       sodipodi:type="arc"
       style="fill:#270000;fill-opacity:1;stroke-width:5;stroke-linecap:round;stroke-linejoin:round;stroke-miterlimit:4;stroke-dasharray:none"
       id="path4098"
       sodipodi:cx="450.85367"
       sodipodi:cy="529.50092"
       sodipodi:rx="0.53737026"
       sodipodi:ry="1.9703577"
       d="m 451.39104,529.50092 a 0.53737026,1.9703577 0 1 1 -1.07474,0 0.53737026,1.9703577 0 1 1 1.07474,0 z"
       transform="matrix(0.12982535,0,0,0.12777598,319.93848,377.15936)" />
    <path
       sodipodi:type="arc"
       style="fill:#270000;fill-opacity:1;stroke-width:5;stroke-linecap:round;stroke-linejoin:round;stroke-miterlimit:4;stroke-dasharray:none"
       id="path4100"
       sodipodi:cx="455.86911"
       sodipodi:cy="521.08209"
       sodipodi:rx="1.9703577"
       sodipodi:ry="2.8659749"
       d="m 457.83947,521.08209 a 1.9703577,2.8659749 0 1 1 -3.94072,0 1.9703577,2.8659749 0 1 1 3.94072,0 z"
       transform="matrix(0.12982535,0,0,0.12777598,319.93848,377.15936)" />
    <path
       sodipodi:type="arc"
       style="fill:#270000;fill-opacity:1;stroke-width:5;stroke-linecap:round;stroke-linejoin:round;stroke-miterlimit:4;stroke-dasharray:none"
       id="path4102"
       sodipodi:cx="447.62946"
       sodipodi:cy="520.3656"
       sodipodi:rx="1.9703577"
       sodipodi:ry="1.4329875"
       d="m 449.59981,520.3656 a 1.9703577,1.4329875 0 1 1 -3.94071,0 1.9703577,1.4329875 0 1 1 3.94071,0 z"
       transform="matrix(0.12982535,0,0,0.12777598,319.93848,377.15936)" />
    <path
       sodipodi:type="arc"
       style="fill:#270000;fill-opacity:1;stroke-width:5;stroke-linecap:round;stroke-linejoin:round;stroke-miterlimit:4;stroke-dasharray:none"
       id="path4104"
       sodipodi:cx="450.13718"
       sodipodi:cy="509.08084"
       sodipodi:rx="2.6868515"
       sodipodi:ry="1.6121109"
       d="m 452.82403,509.08084 a 2.6868515,1.6121109 0 1 1 -5.3737,0 2.6868515,1.6121109 0 1 1 5.3737,0 z"
       transform="matrix(0.12982535,0,0,0.12777598,319.93848,377.15936)" />
  </g>
  <g
     inkscape:groupmode="layer"
     id="layer9"
     inkscape:label="hair"
     transform="translate(-335.19215,-400.40067)">
    <path
       style="fill:#270000;fill-opacity:1;stroke:#000000;stroke-width:0.64398289;stroke-linecap:butt;stroke-linejoin:round;stroke-miterlimit:4;stroke-opacity:1;stroke-dasharray:none"
       d="m 353.05325,426.48386 c -0.72732,-0.46238 -2.95869,-1.08735 -1.8986,-2.13751 1.05434,-0.30176 -1.12089,-1.47843 0.30957,-1.82152 0.13006,-0.53721 -0.23409,-2.19225 1.13281,-1.8181 1.2005,0.14971 2.5118,0.87657 3.01271,1.97089 -0.0476,0.56123 -0.91586,0.23418 -0.3998,0.88213 0.41641,0.70356 0.002,1.35959 -0.68206,1.51598 -0.14401,0.91979 0.30263,2.13298 -1.47463,1.40813 z"
       id="path4029"
       inkscape:connector-curvature="0" />
    <path
       style="fill:#270000;fill-opacity:1;stroke:#000000;stroke-width:0.64398289;stroke-linecap:butt;stroke-linejoin:round;stroke-miterlimit:4;stroke-opacity:1;stroke-dasharray:none"
       d="m 381.61264,426.6342 c 0.7273,-0.46238 2.95871,-1.08735 1.89856,-2.13751 -1.05426,-0.30173 1.12095,-1.47839 -0.30953,-1.8215 -0.13006,-0.53722 0.23408,-2.19225 -1.13278,-1.81809 -1.20051,0.14971 -2.51182,0.8766 -3.01274,1.97086 0.0476,0.56124 0.91588,0.23419 0.39979,0.88216 -0.4164,0.70354 -10e-4,1.35956 0.68206,1.51595 0.14401,0.91981 -0.30266,2.13298 1.47464,1.40813 z"
       id="path4029-3"
       inkscape:connector-curvature="0" />
    <path
       style="fill:#270000;fill-opacity:1;stroke:#000000;stroke-width:0.64398289;stroke-linecap:butt;stroke-linejoin:round;stroke-miterlimit:4;stroke-opacity:1;stroke-dasharray:none"
       d="m 367.00009,408.79268 c -1.28642,0.0503 -2.65313,-0.16889 -3.85611,0.39976 -0.38015,0.17675 -0.86035,0.47035 -0.73104,0.95749 0.10006,0.52266 0.51993,0.98093 0.42496,1.53677 0.15175,0.57434 0.81922,0.69289 1.25361,0.99062 0.34468,0.29021 0.52961,0.69496 1.01243,0.81554 0.56707,0.26936 1.1431,0.53405 1.64913,0.90616 0.57337,0.29351 1.22792,-0.018 1.66257,-0.40879 0.41943,-0.36487 0.77147,-0.80581 1.2546,-1.09688 0.5431,-0.36561 1.17476,-0.78466 1.28264,-1.4771 0.0587,-0.63484 0.3245,-1.3373 -0.0252,-1.93329 -0.26364,-0.35288 -0.71355,-0.50658 -1.12453,-0.62941 -0.82921,-0.20101 -1.69179,-0.11896 -2.53535,-0.0983 -0.0897,0.009 -0.17856,0.024 -0.26769,0.0371 z"
       id="path4071"
       inkscape:connector-curvature="0" />
    <path
       sodipodi:type="arc"
       style="fill:#270000;fill-opacity:1;stroke-width:5;stroke-linecap:round;stroke-linejoin:round;stroke-miterlimit:4;stroke-dasharray:none"
       id="path4106"
       sodipodi:cx="295.87634"
       sodipodi:cy="308.61826"
       sodipodi:rx="3.0398254"
       sodipodi:ry="2.0265503"
       d="m 298.91617,308.61826 a 3.0398254,2.0265503 0 1 1 -6.07965,0 3.0398254,2.0265503 0 1 1 6.07965,0 z"
       transform="matrix(0.12982535,0,0,0.12777598,319.93848,377.15936)" />
    <path
       sodipodi:type="arc"
       style="fill:#270000;fill-opacity:1;stroke-width:5;stroke-linecap:round;stroke-linejoin:round;stroke-miterlimit:4;stroke-dasharray:none"
       id="path4108"
       sodipodi:cx="319.68829"
       sodipodi:cy="294.93903"
       sodipodi:rx="2.5331879"
       sodipodi:ry="1.5199127"
       d="m 322.22148,294.93903 a 2.5331879,1.5199127 0 1 1 -5.06637,0 2.5331879,1.5199127 0 1 1 5.06637,0 z"
       transform="matrix(0.12982535,0,0,0.12777598,319.93848,377.15936)" />
    <path
       sodipodi:type="arc"
       style="fill:#270000;fill-opacity:1;stroke-width:5;stroke-linecap:round;stroke-linejoin:round;stroke-miterlimit:4;stroke-dasharray:none"
       id="path4110"
       sodipodi:cx="297.90289"
       sodipodi:cy="288.85938"
       sodipodi:rx="2.0265503"
       sodipodi:ry="1.5199127"
       d="m 299.92944,288.85937 a 2.0265503,1.5199127 0 1 1 -4.0531,0 2.0265503,1.5199127 0 1 1 4.0531,0 z"
       transform="matrix(0.12982535,0,0,0.12777598,319.93848,377.15936)" />
    <path
       sodipodi:type="arc"
       style="fill:#270000;fill-opacity:1;stroke-width:5;stroke-linecap:round;stroke-linejoin:round;stroke-miterlimit:4;stroke-dasharray:none"
       id="path4118"
       sodipodi:cx="410.37643"
       sodipodi:cy="303.55188"
       sodipodi:rx="2.0265503"
       sodipodi:ry="1.0132751"
       d="m 412.40298,303.55188 a 2.0265503,1.0132751 0 1 1 -4.0531,0 2.0265503,1.0132751 0 1 1 4.0531,0 z"
       transform="matrix(0.12982535,0,0,0.12777598,319.93848,377.15936)" />
    <path
       sodipodi:type="arc"
       style="fill:#270000;fill-opacity:1;stroke-width:5;stroke-linecap:round;stroke-linejoin:round;stroke-miterlimit:4;stroke-dasharray:none"
       id="path4120"
       sodipodi:cx="408.85651"
       sodipodi:cy="281.25983"
       sodipodi:rx="5.5730133"
       sodipodi:ry="4.0531006"
       d="m 414.42952,281.25983 a 5.5730133,4.0531006 0 1 1 -11.14603,0 5.5730133,4.0531006 0 1 1 11.14603,0 z"
       transform="matrix(0.12982535,0,0,0.12777598,319.93848,377.15936)" />
    <path
       sodipodi:type="arc"
       style="fill:#270000;fill-opacity:1;stroke-width:5;stroke-linecap:round;stroke-linejoin:round;stroke-miterlimit:4;stroke-dasharray:none"
       id="path4122"
       sodipodi:cx="437.73486"
       sodipodi:cy="314.19125"
       sodipodi:rx="3.0398254"
       sodipodi:ry="4.5597382"
       d="m 440.77469,314.19125 a 3.0398254,4.5597382 0 1 1 -6.07965,0 3.0398254,4.5597382 0 1 1 6.07965,0 z"
       transform="matrix(0.12982535,0,0,0.12777598,319.93848,377.15936)" />
    <path
       sodipodi:type="arc"
       style="fill:#270000;fill-opacity:1;stroke-width:5;stroke-linecap:round;stroke-linejoin:round;stroke-miterlimit:4;stroke-dasharray:none"
       id="path4124"
       sodipodi:cx="385.55118"
       sodipodi:cy="314.19125"
       sodipodi:rx="3.5464628"
       sodipodi:ry="1.5199127"
       d="m 389.09764,314.19125 a 3.5464628,1.5199127 0 1 1 -7.09292,0 3.5464628,1.5199127 0 1 1 7.09292,0 z"
       transform="matrix(0.12982535,0,0,0.12777598,319.93848,377.15936)" />
  </g>
  <g
     inkscape:groupmode="layer"
     id="layer11"
     inkscape:label="tattoo"
     style="opacity:0.75"
     transform="translate(-335.19215,-400.40067)">
    <path
       style="fill:none;stroke:#000032;stroke-width:1.54555941;stroke-linecap:butt;stroke-linejoin:round;stroke-miterlimit:4;stroke-opacity:1;stroke-dasharray:none"
       d="m 377.74979,430.74097 c -0.60701,0.82818 -1.33505,1.73082 -2.42001,1.91719 -0.97003,0.43795 -2.09712,0.0207 -3.067,0.44916 0.66085,1.27106 0.57526,2.7389 0.87784,4.10272 0.0561,1.11298 0.20556,2.32626 -0.41386,3.32682"
       id="path4127"
       inkscape:connector-curvature="0" />
    <path
       style="fill:none;stroke:#000032;stroke-width:1.54555941;stroke-linecap:butt;stroke-linejoin:round;stroke-miterlimit:4;stroke-opacity:1;stroke-dasharray:none"
       d="m 375.14527,433.80792 c 0.73235,0.60895 0.81011,1.64766 0.62728,2.51338 -0.10006,0.7053 -0.52713,1.36936 -0.36395,2.09896 0.10905,0.62804 0.42419,1.19431 0.62034,1.79618"
       id="path4137"
       inkscape:connector-curvature="0" />
    <path
       style="fill:none;stroke:#000032;stroke-width:1.54555941;stroke-linecap:butt;stroke-linejoin:round;stroke-miterlimit:4;stroke-opacity:1;stroke-dasharray:none"
       d="m 377.33121,432.2973 c 0.78094,1.00557 1.0449,2.32166 0.93169,3.56431 0.16471,1.25606 -0.43186,2.4642 -0.31844,3.71972 -0.0159,0.94809 -0.20749,2.07304 0.59599,2.78658"
       id="path4139"
       inkscape:connector-curvature="0" />
  </g>
</svg>
