<?xml version="1.0" encoding="UTF-8" standalone="no"?>
<!-- Created with Inkscape (http://www.inkscape.org/) -->

<svg
   xmlns:dc="http://purl.org/dc/elements/1.1/"
   xmlns:cc="http://creativecommons.org/ns#"
   xmlns:rdf="http://www.w3.org/1999/02/22-rdf-syntax-ns#"
   xmlns:svg="http://www.w3.org/2000/svg"
   xmlns="http://www.w3.org/2000/svg"
   xmlns:sodipodi="http://sodipodi.sourceforge.net/DTD/sodipodi-0.dtd"
   xmlns:inkscape="http://www.inkscape.org/namespaces/inkscape"
   width="64"
   height="64"
   id="svg2"
   version="1.1"
   inkscape:version="0.48.0 r9654"
   sodipodi:docname="scar01.svg"
   style="display:inline">
  <defs
     id="defs4" />
  <sodipodi:namedview
     id="base"
     pagecolor="#ffffff"
     bordercolor="#666666"
     borderopacity="1.0"
     inkscape:pageopacity="0.0"
     inkscape:pageshadow="2"
     inkscape:zoom="7.9195959"
     inkscape:cx="11.963852"
     inkscape:cy="36.592686"
     inkscape:document-units="px"
     inkscape:current-layer="layer2"
     showgrid="false"
     inkscape:window-width="1440"
     inkscape:window-height="848"
     inkscape:window-x="-8"
     inkscape:window-y="-8"
     inkscape:window-maximized="1" />
  <metadata
     id="metadata7">
    <rdf:RDF>
      <cc:Work
         rdf:about="">
        <dc:format>image/svg+xml</dc:format>
        <dc:type
           rdf:resource="http://purl.org/dc/dcmitype/StillImage" />
        <dc:title />
      </cc:Work>
    </rdf:RDF>
  </metadata>
  <g
     inkscape:groupmode="layer"
     id="layer2"
     inkscape:label="scar">
    <path
       style="fill:none;stroke:#badf0d;stroke-width:1px;stroke-linecap:butt;stroke-linejoin:miter;stroke-opacity:1"
       d="m 40.911178,26.371817 c 0,0.168359 -0.03302,0.339987 0,0.505077 0.01167,0.05837 0.09965,0.07303 0.126269,0.126269 0.01882,0.03765 -0.01882,0.08862 0,0.126269 0.02662,0.05324 0.09965,0.07303 0.126269,0.126269 0.01882,0.03765 -0.02335,0.09125 0,0.126269 0.06604,0.09905 0.186503,0.153485 0.252539,0.252538 0.03666,0.05499 -0.03333,0.312155 0,0.378807 0.02662,0.05324 0.09965,0.07303 0.126269,0.126269 0.03765,0.07529 -0.03765,0.177246 0,0.252539 0.02662,0.05324 0.09965,0.07303 0.126269,0.126269 0.01632,0.03265 0,0.668114 0,0.757614 0,0.04209 0.02976,0.09651 0,0.126269 -0.02976,0.02976 -0.09651,-0.02976 -0.126269,0 -0.03039,0.03038 0.03038,0.474692 0,0.505076 -0.02976,0.02976 -0.09651,-0.02976 -0.126269,0 -0.0051,0.0051 0,0.458706 0,0.505077 0,0.547166 0,1.094332 0,1.641498 0,0.04209 0,0.08418 0,0.126269 0,0.04209 -0.02976,0.09651 0,0.126269 0.168358,0.168358 0.126269,-0.210449 0.126269,0.126269"
       id="path4496"
       inkscape:connector-curvature="0" />
    <path
       style="fill:none;stroke:#badf0d;stroke-width:1px;stroke-linecap:butt;stroke-linejoin:miter;stroke-opacity:1"
       d="m 42.805214,37.483496 c -0.128755,0.867004 0.990378,1.222652 0.995541,2.070779 0.127306,0.717463 -0.05506,1.437121 -0.406312,2.063464 -0.231588,0.797125 -0.0033,1.656192 -0.0862,2.480095 -0.142237,0.630182 0.494399,0.838875 0.507052,1.466882"
       id="path4498"
       inkscape:connector-curvature="0" />
  </g>
</svg>
