<?xml version="1.0" encoding="UTF-8" standalone="no"?>
<!-- Created with Inkscape (http://www.inkscape.org/) -->

<svg
   xmlns:dc="http://purl.org/dc/elements/1.1/"
   xmlns:cc="http://creativecommons.org/ns#"
   xmlns:rdf="http://www.w3.org/1999/02/22-rdf-syntax-ns#"
   xmlns:svg="http://www.w3.org/2000/svg"
   xmlns="http://www.w3.org/2000/svg"
   xmlns:sodipodi="http://sodipodi.sourceforge.net/DTD/sodipodi-0.dtd"
   xmlns:inkscape="http://www.inkscape.org/namespaces/inkscape"
   width="24"
   height="24"
   id="svg2"
   version="1.1"
   inkscape:version="0.47 r22583"
   sodipodi:docname="talkhistory.svg">
  <defs
     id="defs4">
    <inkscape:perspective
       sodipodi:type="inkscape:persp3d"
       inkscape:vp_x="0 : 526.18109 : 1"
       inkscape:vp_y="0 : 1000 : 0"
       inkscape:vp_z="744.09448 : 526.18109 : 1"
       inkscape:persp3d-origin="372.04724 : 350.78739 : 1"
       id="perspective10" />
  </defs>
  <sodipodi:namedview
     id="base"
     pagecolor="#ffffff"
     bordercolor="#666666"
     borderopacity="1.0"
     inkscape:pageopacity="0.0"
     inkscape:pageshadow="2"
     inkscape:zoom="22.4"
     inkscape:cx="16.703688"
     inkscape:cy="11.616303"
     inkscape:document-units="px"
     inkscape:current-layer="layer1"
     showgrid="false"
     inkscape:window-width="1440"
     inkscape:window-height="732"
     inkscape:window-x="0"
     inkscape:window-y="25"
     inkscape:window-maximized="1" />
  <metadata
     id="metadata7">
    <rdf:RDF>
      <cc:Work
         rdf:about="">
        <dc:format>image/svg+xml</dc:format>
        <dc:type
           rdf:resource="http://purl.org/dc/dcmitype/StillImage" />
        <dc:title />
      </cc:Work>
    </rdf:RDF>
  </metadata>
  <g
     style="display:inline;opacity:0.5"
     transform="translate(0,-1028.3622)"
     id="g3685"
     inkscape:groupmode="layer"
     inkscape:label="icon copy">
    <path
       sodipodi:nodetypes="ccccccccccccccc"
       id="path3687"
       d="m 10.480158,1032.0707 c -2.494234,0.021 -3.2936551,-0.1562 -5.6975119,0.647 -1.3743647,2.0846 -0.7658189,4.6668 -0.8096896,6.9997 -0.05506,1.5499 -0.3687841,3.3136 0.6650941,4.6339 1.3757121,1.3011 3.4078005,0.9664 5.1242463,0.8543 1.3412711,-0.1025 2.5644671,0.2727 4.0886641,0.5776 0.766804,1.1372 -1.757402,2.1894 -0.678936,3.253 0.982887,0.6942 2.114113,-0.1036 3.087574,-0.4024 1.090494,-0.5337 1.301346,-1.8326 1.695464,-2.8474 0.769904,-1.1218 2.236676,-0.4864 3.328104,-0.7197 1.117624,-0.3997 1.469825,-1.7566 1.23739,-2.8152 -0.209094,-2.9284 0.162588,-5.7628 -0.298916,-8.6725 -0.437675,-1.2454 -1.962776,-1.5449 -3.104448,-1.4917 -2.290752,0.022 -3.319605,-0.248 -5.606578,-0.017 l -3.030457,4e-4 z"
       style="fill:#000000;fill-opacity:1;stroke:#000000;stroke-width:1.57931529999999998;stroke-linecap:round;stroke-linejoin:round;stroke-miterlimit:4;stroke-opacity:1;stroke-dasharray:none" />
  </g>
  <g
     inkscape:label="icon"
     inkscape:groupmode="layer"
     id="layer1"
     transform="translate(0,-1028.3622)"
     style="display:inline">
    <path
       style="fill:#ffffff;fill-opacity:1;stroke:#000000;stroke-width:1.5793153;stroke-linecap:round;stroke-linejoin:round;stroke-miterlimit:4;stroke-opacity:1;stroke-dasharray:none"
       d="m 8.5861217,1030.1766 c -2.4942337,0.021 -3.2936548,-0.1562 -5.6975116,0.647 -1.3743647,2.0846 -0.7658189,4.6668 -0.8096896,6.9997 -0.05506,1.5499 -0.3687841,3.3136 0.6650941,4.6339 1.3757121,1.3011 3.4078005,0.9664 5.1242463,0.8543 1.3412717,-0.1025 2.5644671,0.2727 4.0886641,0.5776 0.766804,1.1372 -1.757402,2.1894 -0.678936,3.253 0.982887,0.6942 2.114113,-0.1036 3.087574,-0.4024 1.090494,-0.5337 1.301346,-1.8326 1.695464,-2.8474 0.769904,-1.1218 2.236676,-0.4864 3.328104,-0.7197 1.117624,-0.3997 1.469825,-1.7566 1.23739,-2.8152 -0.209094,-2.9284 0.162588,-5.7628 -0.298916,-8.6725 -0.437675,-1.2454 -1.962776,-1.5449 -3.104448,-1.4917 -2.290752,0.022 -3.319605,-0.248 -5.606578,-0.017 l -3.0304573,4e-4 z"
       id="path2820"
       sodipodi:nodetypes="ccccccccccccccc" />
    <path
       sodipodi:type="arc"
       style="fill:none;stroke:#000000;stroke-width:1.52193344;stroke-linecap:round;stroke-linejoin:round;stroke-miterlimit:4;stroke-opacity:1;stroke-dasharray:none"
       id="path2819"
       sodipodi:cx="11.174812"
       sodipodi:cy="8.2163668"
       sodipodi:rx="4.6088209"
       sodipodi:ry="3.9143412"
       d="m 15.783633,8.2163668 a 4.6088209,3.9143412 0 1 1 -9.2176416,0 4.6088209,3.9143412 0 1 1 9.2176416,0 z"
       transform="matrix(0.90363674,0,0,1.1038766,1.44033,1027.5343)" />
    <path
       style="fill:none;stroke:#000000;stroke-width:1.23879874;stroke-linecap:butt;stroke-linejoin:miter;stroke-miterlimit:4;stroke-opacity:1;stroke-dasharray:none"
       d="m 11.458821,1032.2495 -0.108907,4.1264 -1.9603344,-1.834"
       id="path3593" />
  </g>
</svg>
