<?xml version="1.0" encoding="UTF-8" standalone="no"?>
<!-- Created with Inkscape (http://www.inkscape.org/) -->

<svg
   xmlns:dc="http://purl.org/dc/elements/1.1/"
   xmlns:cc="http://creativecommons.org/ns#"
   xmlns:rdf="http://www.w3.org/1999/02/22-rdf-syntax-ns#"
   xmlns:svg="http://www.w3.org/2000/svg"
   xmlns="http://www.w3.org/2000/svg"
   xmlns:xlink="http://www.w3.org/1999/xlink"
   xmlns:sodipodi="http://sodipodi.sourceforge.net/DTD/sodipodi-0.dtd"
   xmlns:inkscape="http://www.inkscape.org/namespaces/inkscape"
   width="64"
   height="64"
   id="svg2"
   version="1.1"
   inkscape:version="0.47 r22583"
   sodipodi:docname="reference.svg"
   style="display:inline">
  <defs
     id="defs4">
    <inkscape:perspective
       sodipodi:type="inkscape:persp3d"
       inkscape:vp_x="0 : 32 : 1"
       inkscape:vp_y="0 : 1000 : 0"
       inkscape:vp_z="64 : 32 : 1"
       inkscape:persp3d-origin="32 : 21.333333 : 1"
       id="perspective38" />
    <linearGradient
       id="linearGradient3858">
      <stop
         id="stop3866"
         offset="0"
         style="stop-color:#20201e;stop-opacity:0.94117647;" />
      <stop
         style="stop-color:#000000;stop-opacity:0.94901961;"
         offset="0.43055555"
         id="stop3868" />
      <stop
         style="stop-color:#000000;stop-opacity:0.94117647;"
         offset="1"
         id="stop3862" />
    </linearGradient>
    <radialGradient
       inkscape:collect="always"
       xlink:href="#linearGradient3858"
       id="radialGradient3864"
       cx="23.233509"
       cy="34.958115"
       fx="23.233509"
       fy="34.958115"
       r="6.5083773"
       gradientTransform="matrix(1,0,0,0.61197984,0,13.564453)"
       gradientUnits="userSpaceOnUse" />
    <radialGradient
       inkscape:collect="always"
       xlink:href="#linearGradient3858"
       id="radialGradient3872"
       gradientUnits="userSpaceOnUse"
       gradientTransform="matrix(1,0,0,0.61197984,0,13.564453)"
       cx="23.233509"
       cy="34.958115"
       fx="23.233509"
       fy="34.958115"
       r="6.5083773" />
  </defs>
  <sodipodi:namedview
     id="base"
     pagecolor="#ffffff"
     bordercolor="#666666"
     borderopacity="1.0"
     inkscape:pageopacity="0.0"
     inkscape:pageshadow="2"
     inkscape:zoom="7.9195959"
     inkscape:cx="32.856257"
     inkscape:cy="30.84989"
     inkscape:document-units="px"
     inkscape:current-layer="layer8"
     showgrid="false"
     inkscape:window-width="1440"
     inkscape:window-height="732"
     inkscape:window-x="0"
     inkscape:window-y="25"
     inkscape:window-maximized="1" />
  <metadata
     id="metadata7">
    <rdf:RDF>
      <cc:Work
         rdf:about="">
        <dc:format>image/svg+xml</dc:format>
        <dc:type
           rdf:resource="http://purl.org/dc/dcmitype/StillImage" />
        <dc:title></dc:title>
      </cc:Work>
    </rdf:RDF>
  </metadata>
  <g
     inkscape:groupmode="layer"
     id="layer8"
     inkscape:label="beard">
    <path
       style="fill:#badf0d;stroke:#000000;stroke-width:1.4;stroke-linecap:butt;stroke-linejoin:miter;stroke-opacity:1;fill-opacity:1;stroke-miterlimit:4;stroke-dasharray:none"
       d="m 39.573922,42.133883 c -0.199164,0.0096 -0.535345,-0.207108 -2.392767,-0.253807 -1.618959,0.456637 -2.656617,0.882718 -5.024905,0.588674 -1.698482,-0.352318 -3.722092,-0.480402 -5.692576,-0.288864 -1.932336,0.282507 -3.098866,-1.045939 -5.026174,-0.148636 -1.5278,1.100716 -0.745362,0.470354 -3.308693,0.730172 -0.976508,0.860654 -2.280437,1.197051 -2.347557,1.660057 -1.176413,2.440666 -0.299649,1.719591 0,4.297271 0.104859,0.823673 1.329816,3.340704 1.71875,1.5625 0.737285,-0.933321 1.048141,1.223805 1.625,1.6875 0.748904,1.306566 1.734104,2.10718 3.1875,2.71875 1.556118,-0.609183 2.465934,1.219686 3.25,2.0625 1.172367,1.108853 2.532435,1.994418 3.84375,0.96875 0.803246,0.733806 1.700095,1.61722 3.28125,1.09375 1.482398,0.08717 3.563028,-1.505031 4.65625,0.09375 2.439654,-0.1235 2.225325,-0.964549 3.625,-1.75 1.079116,-0.828025 0.731655,-1.880004 2.3125,-2.09375 1.079557,0.0087 1.790182,-1.0727 2.3125,-1.90625 0.743351,-0.974252 0.802547,-2.473159 1.71875,-3.1875 0.801858,-0.01396 0.476488,1.402312 1.5,0.625 1.167203,-1.098893 0.341356,-2.854082 0.4375,-4.21875 0.231806,-1.746545 -0.905849,-3.361447 -2.625,-3.75 -1.378827,-0.46106 -2.826185,-0.65903 -4.21875,-0.21875 -1.542753,0.195544 -1.438177,-0.339293 -2.832328,-0.272367 z m -4.863579,1.996193 c 2.089089,-0.177397 1.830509,0.0026 3.883407,0.244924 1.807218,0.142386 2.184292,2.678283 1.375,4 -1.526262,0.542659 -3.17583,0.62731 -4.78125,0.5625 -2.007948,-0.238793 -3.976014,0.754582 -5.96875,0.40625 -1.261956,-0.636159 -2.681359,-0.979369 -3.84375,-1.75 -1.014477,-0.901521 -0.616299,-2.694952 0.71875,-3.03125 1.089137,-0.531885 2.230374,-0.503976 3.46875,-0.75 1.72735,0.22397 4.315144,0.367098 5.147843,0.317576 z"
       id="path2845"
       sodipodi:nodetypes="ccccccccccccccccccccccccccccccccc" />
  </g>
</svg>
