<?xml version="1.0" encoding="UTF-8" standalone="no"?>
<!-- Created with Inkscape (http://www.inkscape.org/) -->

<svg
   xmlns:dc="http://purl.org/dc/elements/1.1/"
   xmlns:cc="http://creativecommons.org/ns#"
   xmlns:rdf="http://www.w3.org/1999/02/22-rdf-syntax-ns#"
   xmlns:svg="http://www.w3.org/2000/svg"
   xmlns="http://www.w3.org/2000/svg"
   xmlns:sodipodi="http://sodipodi.sourceforge.net/DTD/sodipodi-0.dtd"
   xmlns:inkscape="http://www.inkscape.org/namespaces/inkscape"
   width="64"
   height="64"
   id="svg2"
   version="1.1"
   inkscape:version="0.48.0 r9654"
   sodipodi:docname="ears01.svg"
   style="display:inline">
  <defs
     id="defs4" />
  <sodipodi:namedview
     id="base"
     pagecolor="#ffffff"
     bordercolor="#666666"
     borderopacity="1.0"
     inkscape:pageopacity="0.0"
     inkscape:pageshadow="2"
     inkscape:zoom="7.9195959"
     inkscape:cx="28.515282"
     inkscape:cy="36.592686"
     inkscape:document-units="px"
     inkscape:current-layer="layer1"
     showgrid="false"
     inkscape:window-width="1440"
     inkscape:window-height="848"
     inkscape:window-x="-8"
     inkscape:window-y="-8"
     inkscape:window-maximized="1" />
  <metadata
     id="metadata7">
    <rdf:RDF>
      <cc:Work
         rdf:about="">
        <dc:format>image/svg+xml</dc:format>
        <dc:type
           rdf:resource="http://purl.org/dc/dcmitype/StillImage" />
        <dc:title />
      </cc:Work>
    </rdf:RDF>
  </metadata>
  <g
     inkscape:groupmode="layer"
     id="layer1"
     inkscape:label="ears"
     style="display:inline">
    <path
       style="fill:#badf0d;fill-opacity:1;stroke:#000000;stroke-width:1.39999998;stroke-linecap:butt;stroke-linejoin:miter;stroke-miterlimit:4;stroke-opacity:1;stroke-dasharray:none"
       d="m 14.89975,31.170042 c -1.045017,-0.937304 -3.05739,-1.779986 -4.440149,-1.473811 -0.8150624,0.171198 -1.5246007,0.821011 -1.6658859,1.657333 -0.1126828,0.449751 -0.022549,0.913963 -0.014036,1.364035 -0.1829245,1.561192 -0.3080016,3.214399 0.2907142,4.705856 0.3563154,0.905587 1.1223297,1.622221 2.0448697,1.928789 1.004674,0.421197 2.84837,0.704245 3.91076,0.909144"
       id="path3758"
       inkscape:connector-curvature="0"
       sodipodi:nodetypes="ccccccc" />
    <path
       style="fill:none;stroke:#000000;stroke-width:1px;stroke-linecap:butt;stroke-linejoin:miter;stroke-opacity:1"
       d="m 11.616754,32.180195 c 2.979766,0.741855 -1.45765,3.997901 1.020528,5.238398 l 0.360204,0.190722 0.38707,0.126721"
       id="path3770"
       inkscape:connector-curvature="0" />
    <path
       sodipodi:nodetypes="ccccccc"
       inkscape:connector-curvature="0"
       id="path3786"
       d="m 49.665968,30.791235 c 1.045017,-0.937304 3.05739,-1.779986 4.440149,-1.473811 0.815062,0.171198 1.5246,0.821011 1.665885,1.657333 0.112683,0.449751 0.02255,0.913963 0.01404,1.364035 0.182925,1.561192 0.308002,3.214399 -0.290714,4.705856 -0.356315,0.905587 -1.122329,1.622221 -2.044869,1.928789 -1.004674,0.421197 -2.84837,0.704245 -3.91076,0.909144"
       style="fill:#badf0d;fill-opacity:1;stroke:#000000;stroke-width:1.39999998;stroke-linecap:butt;stroke-linejoin:miter;stroke-miterlimit:4;stroke-opacity:1;stroke-dasharray:none" />
    <path
       inkscape:connector-curvature="0"
       id="path3788"
       d="m 52.948964,31.801388 c -2.979766,0.741855 1.45765,3.997901 -1.020528,5.238398 l -0.360204,0.190722 -0.38707,0.126721"
       style="fill:none;stroke:#000000;stroke-width:1px;stroke-linecap:butt;stroke-linejoin:miter;stroke-opacity:1" />
  </g>
</svg>
