<?xml version="1.0" encoding="UTF-8" standalone="no"?>
<!-- Created with Inkscape (http://www.inkscape.org/) -->

<svg
   xmlns:dc="http://purl.org/dc/elements/1.1/"
   xmlns:cc="http://creativecommons.org/ns#"
   xmlns:rdf="http://www.w3.org/1999/02/22-rdf-syntax-ns#"
   xmlns:svg="http://www.w3.org/2000/svg"
   xmlns="http://www.w3.org/2000/svg"
   xmlns:sodipodi="http://sodipodi.sourceforge.net/DTD/sodipodi-0.dtd"
   xmlns:inkscape="http://www.inkscape.org/namespaces/inkscape"
   width="64"
   height="64"
   id="svg2"
   version="1.1"
   inkscape:version="0.48.0 r9654"
   sodipodi:docname="ears02.svg"
   style="display:inline">
  <defs
     id="defs4" />
  <sodipodi:namedview
     id="base"
     pagecolor="#ffffff"
     bordercolor="#666666"
     borderopacity="1.0"
     inkscape:pageopacity="0.0"
     inkscape:pageshadow="2"
     inkscape:zoom="7.9195959"
     inkscape:cx="29.369426"
     inkscape:cy="36.592686"
     inkscape:document-units="px"
     inkscape:current-layer="layer3"
     showgrid="false"
     inkscape:window-width="1440"
     inkscape:window-height="848"
     inkscape:window-x="-8"
     inkscape:window-y="-8"
     inkscape:window-maximized="1" />
  <metadata
     id="metadata7">
    <rdf:RDF>
      <cc:Work
         rdf:about="">
        <dc:format>image/svg+xml</dc:format>
        <dc:type
           rdf:resource="http://purl.org/dc/dcmitype/StillImage" />
        <dc:title />
      </cc:Work>
    </rdf:RDF>
  </metadata>
  <g
     inkscape:groupmode="layer"
     id="layer3"
     inkscape:label="ears"
     style="display:inline"
     transform="translate(0,16)">
    <g
       style="fill:#785d42;fill-opacity:1"
       id="g3047"
       transform="matrix(1.2023208,0,0,0.99695873,-8.8771527,-1.9375436)">
      <path
         inkscape:connector-curvature="0"
         id="path3026"
         d="m 49.091623,16.839286 c 0.896901,-0.741933 1.901156,-1.47843 3.084595,-1.639009 0.635296,-0.08815 1.360263,0.226799 1.610557,0.834304 0.414328,1.906951 -0.148071,3.862701 0.179136,5.778387 0.169159,1.477725 -0.221077,4.351417 -1.572304,4.939512 -0.661067,0.245971 -1.858893,-0.891685 -2.564068,-0.806476 -0.185794,0.01842 -0.37355,0.02051 -0.559301,3.87e-4"
         style="fill:#785d42;fill-opacity:1;stroke:#000000;stroke-width:1.27873121;stroke-linecap:butt;stroke-linejoin:miter;stroke-opacity:1;stroke-miterlimit:4;stroke-dasharray:none"
         sodipodi:nodetypes="ccccccc" />
      <path
         style="fill:#785d42;fill-opacity:1;stroke:#000000;stroke-width:1.27873121;stroke-linecap:butt;stroke-linejoin:miter;stroke-opacity:1;stroke-miterlimit:4;stroke-dasharray:none"
         d="m 19.498235,17.017857 c -0.896901,-0.741933 -1.901156,-1.47843 -3.084595,-1.639009 -0.635296,-0.08815 -1.360263,0.226799 -1.610557,0.834304 -0.414328,1.906951 0.148071,3.862701 -0.179136,5.778387 -0.169159,1.477725 0.43112,4.604725 1.782347,5.19282 0.661067,0.245971 1.64885,-1.144993 2.354025,-1.059784 0.185794,0.01842 0.37355,0.02051 0.559301,3.87e-4"
         id="path3050"
         inkscape:connector-curvature="0"
         sodipodi:nodetypes="ccccccc" />
    </g>
    <path
       style="fill:none;fill-opacity:1;stroke:#000000;stroke-width:1.13807178000000000px;stroke-linecap:butt;stroke-linejoin:miter;stroke-opacity:1"
       d="m 54.082568,15.918699 c -1.855792,0.25868 -2.256735,2.008255 -1.776978,3.186792 0.426964,0.927242 0.786323,1.801086 -0.311044,2.510116"
       id="path3037"
       inkscape:connector-curvature="0" />
    <path
       inkscape:connector-curvature="0"
       id="path3052"
       d="m 10.678752,15.918699 c 1.855793,0.25868 2.256735,2.008255 1.776978,3.186792 -0.426963,0.927242 -0.786322,1.801086 0.311044,2.510116"
       style="fill:none;fill-opacity:1;stroke:#000000;stroke-width:1.13807178000000000px;stroke-linecap:butt;stroke-linejoin:miter;stroke-opacity:1" />
  </g>
</svg>
