<?xml version="1.0" encoding="UTF-8" standalone="no"?>
<!-- Created with Inkscape (http://www.inkscape.org/) -->

<svg
   xmlns:dc="http://purl.org/dc/elements/1.1/"
   xmlns:cc="http://creativecommons.org/ns#"
   xmlns:rdf="http://www.w3.org/1999/02/22-rdf-syntax-ns#"
   xmlns:svg="http://www.w3.org/2000/svg"
   xmlns="http://www.w3.org/2000/svg"
   xmlns:sodipodi="http://sodipodi.sourceforge.net/DTD/sodipodi-0.dtd"
   xmlns:inkscape="http://www.inkscape.org/namespaces/inkscape"
   width="64"
   height="64"
   id="svg2"
   version="1.1"
   inkscape:version="0.47 r22583"
   sodipodi:docname="eyes02.svg"
   style="display:inline">
  <defs
     id="defs4">
    <inkscape:perspective
       sodipodi:type="inkscape:persp3d"
       inkscape:vp_x="0 : 32 : 1"
       inkscape:vp_y="0 : 1000 : 0"
       inkscape:vp_z="64 : 32 : 1"
       inkscape:persp3d-origin="32 : 21.333333 : 1"
       id="perspective13" />
  </defs>
  <sodipodi:namedview
     id="base"
     pagecolor="#ffffff"
     bordercolor="#666666"
     borderopacity="1.0"
     inkscape:pageopacity="0.0"
     inkscape:pageshadow="2"
     inkscape:zoom="7.9195959"
     inkscape:cx="4.8927842"
     inkscape:cy="36.340148"
     inkscape:document-units="px"
     inkscape:current-layer="layer4"
     showgrid="false"
     inkscape:window-width="1440"
     inkscape:window-height="732"
     inkscape:window-x="0"
     inkscape:window-y="25"
     inkscape:window-maximized="1" />
  <metadata
     id="metadata7">
    <rdf:RDF>
      <cc:Work
         rdf:about="">
        <dc:format>image/svg+xml</dc:format>
        <dc:type
           rdf:resource="http://purl.org/dc/dcmitype/StillImage" />
        <dc:title />
      </cc:Work>
    </rdf:RDF>
  </metadata>
  <g
     inkscape:groupmode="layer"
     id="layer4"
     inkscape:label="eyes"
     style="display:inline"
     transform="translate(0,16)">
    <path
       style="fill:#ffffff;fill-opacity:1;stroke:#000000;stroke-width:1.29915845px;stroke-linecap:butt;stroke-linejoin:miter;stroke-opacity:1"
       d="m 36.915115,17.728218 c 1.645808,-1.113875 3.819202,-1.073374 5.773474,-1.036497 1.045893,0.02911 2.093716,0.04791 3.09352,0.362325 0.850355,0.892504 0.417931,1.540888 -0.08149,2.312379 -0.724765,1.138699 -2.077276,1.72713 -3.379489,1.875692 -1.032363,0.127136 -2.108577,-0.135161 -2.93519,-0.775314 -0.997165,-0.742507 -1.651916,-1.823872 -2.470826,-2.738585 z"
       id="path3062"
       inkscape:connector-curvature="0"
       sodipodi:nodetypes="ccccccc" />
    <path
       sodipodi:type="arc"
       style="fill:none;stroke:#c8c8c8;stroke-width:2;stroke-linecap:round;stroke-linejoin:round;stroke-miterlimit:4;stroke-opacity:1;stroke-dasharray:none"
       id="path3076"
       sodipodi:cx="30.825893"
       sodipodi:cy="23"
       sodipodi:rx="0.69196427"
       sodipodi:ry="0.53571427"
       d="m 31.517858,23 c 0,0.295867 -0.309803,0.535714 -0.691965,0.535714 -0.382161,0 -0.691964,-0.239847 -0.691964,-0.535714 0,-0.295867 0.309803,-0.535714 0.691964,-0.535714 0.382162,0 0.691965,0.239847 0.691965,0.535714 z"
       transform="matrix(1.2991585,0,0,1.2991585,1.7785107,-11.231091)" />
    <path
       inkscape:connector-curvature="0"
       id="path3854"
       d="m 27.832252,17.67022 c -1.645807,-1.113875 -3.692933,-1.452181 -5.647205,-1.415304 -1.045893,0.02911 -2.093716,0.174178 -3.09352,0.488594 -0.471548,0.766234 -0.544199,1.793426 -0.04478,2.564917 0.724766,1.138699 2.077277,1.727129 3.379489,1.875692 1.032364,0.127136 2.108577,-0.135162 2.93519,-0.775314 0.997166,-0.742507 1.651917,-1.823872 2.470828,-2.738585 z"
       style="fill:#ffffff;fill-opacity:1;stroke:#000000;stroke-width:1.29915845px;stroke-linecap:butt;stroke-linejoin:miter;stroke-opacity:1" />
    <path
       transform="matrix(-1.2991585,0,0,1.2991585,63.095125,-11.920434)"
       d="m 31.517858,23 c 0,0.295867 -0.309803,0.535714 -0.691965,0.535714 -0.382161,0 -0.691964,-0.239847 -0.691964,-0.535714 0,-0.295867 0.309803,-0.535714 0.691964,-0.535714 0.382162,0 0.691965,0.239847 0.691965,0.535714 z"
       sodipodi:ry="0.53571427"
       sodipodi:rx="0.69196427"
       sodipodi:cy="23"
       sodipodi:cx="30.825893"
       id="path3856"
       style="fill:none;fill-opacity:1;stroke:#badf0d;stroke-width:2;stroke-linecap:round;stroke-linejoin:round;stroke-miterlimit:4;stroke-opacity:1;stroke-dasharray:none"
       sodipodi:type="arc" />
    <path
       style="fill:none;stroke:#000000;stroke-width:1.29915845px;stroke-linecap:butt;stroke-linejoin:miter;stroke-opacity:1"
       d="m 35.987144,16.046272 c 2.449289,0.213389 4.984949,-1.283254 7.424624,-1.22522 1.422548,-0.0997 2.344406,-0.468757 3.769023,-0.514653"
       id="path3858"
       inkscape:connector-curvature="0"
       sodipodi:nodetypes="ccc" />
    <path
       inkscape:connector-curvature="0"
       id="path3865"
       d="M 28.73738,15.988274 C 26.288091,16.201663 24.257507,14.326212 21.817832,14.384247 20.395285,14.28455 18.96835,14.294293 17.543733,14.2484"
       style="fill:none;stroke:#000000;stroke-width:1.29915845px;stroke-linecap:butt;stroke-linejoin:miter;stroke-opacity:1" />
  </g>
</svg>
