<?xml version="1.0" encoding="UTF-8" standalone="no"?>
<!-- Created with Inkscape (http://www.inkscape.org/) -->

<svg
   xmlns:dc="http://purl.org/dc/elements/1.1/"
   xmlns:cc="http://creativecommons.org/ns#"
   xmlns:rdf="http://www.w3.org/1999/02/22-rdf-syntax-ns#"
   xmlns:svg="http://www.w3.org/2000/svg"
   xmlns="http://www.w3.org/2000/svg"
   xmlns:sodipodi="http://sodipodi.sourceforge.net/DTD/sodipodi-0.dtd"
   xmlns:inkscape="http://www.inkscape.org/namespaces/inkscape"
   width="64"
   height="64"
   id="svg2"
   version="1.1"
   inkscape:version="0.48.0 r9654"
   sodipodi:docname="hair01.svg"
   style="display:inline">
  <defs
     id="defs4" />
  <sodipodi:namedview
     id="base"
     pagecolor="#ffffff"
     bordercolor="#666666"
     borderopacity="1.0"
     inkscape:pageopacity="0.0"
     inkscape:pageshadow="2"
     inkscape:zoom="7.9195959"
     inkscape:cx="8.9958491"
     inkscape:cy="36.592686"
     inkscape:document-units="px"
     inkscape:current-layer="layer7"
     showgrid="false"
     inkscape:window-width="1440"
     inkscape:window-height="848"
     inkscape:window-x="-8"
     inkscape:window-y="-8"
     inkscape:window-maximized="1" />
  <metadata
     id="metadata7">
    <rdf:RDF>
      <cc:Work
         rdf:about="">
        <dc:format>image/svg+xml</dc:format>
        <dc:type
           rdf:resource="http://purl.org/dc/dcmitype/StillImage" />
        <dc:title />
      </cc:Work>
    </rdf:RDF>
  </metadata>
  <g
     inkscape:groupmode="layer"
     id="layer7"
     inkscape:label="hair"
     transform="translate(0,16)">
    <path
       style="fill:#140d00;fill-opacity:1;stroke:#000000;stroke-width:1.29915845px;stroke-linecap:butt;stroke-linejoin:miter;stroke-opacity:1"
       d="M 14.707775,12.477168 C 13.608186,9.1927187 10.35589,7.5118597 7.9945928,5.2487074 8.8598388,3.465489 13.418541,6.160527 12.290638,2.7047303 11.748933,1.7646696 8.9092257,-0.70536932 11.404725,-0.77741922 c 1.479918,0.62079352 5.218311,1.41075061 4.323681,-1.38618368 -0.535272,-2.1674705 -2.529063,-3.97994 -3.153363,-5.8718297 2.591163,0.1742589 5.441497,0.1768555 7.635239,1.795929 0.44323,1.1976728 2.461243,1.6351477 1.684732,-0.1425487 -0.747617,-2.1085854 2.07272,-3.3310708 3.045113,-1.2897797 1.563185,1.9246327 4.121787,1.9935685 5.699911,0.217207 2.293921,-0.9170512 3.65225,-1.5968182 6.04957,-1.7219532 -1.602843,0.1185261 -4.472238,2.205655 -3.303197,4.0172833 2.302982,-0.259423 4.208142,-1.8548206 6.534449,-2.1141023 3.270582,-0.7169587 6.637337,-0.6372668 9.964908,-0.7106624 -2.290843,0.763086 -4.752687,2.2713333 -5.272423,4.8116683 1.978017,1.0659713 4.262541,-0.06844 6.365376,0.4548652 0.884449,-0.050257 4.353739,0.4478614 1.949198,0.897067 -1.386537,-0.064549 -3.783025,1.7818652 -1.157172,2.14668345 1.649846,0.57183253 3.840281,1.15186005 4.23466,3.12966125 -1.924333,0.8278679 -4.082997,-0.5160907 -5.977539,0.1906359 1.057039,1.5320456 1.846446,3.1773324 1.980571,5.1302859 0.445764,1.0560924 0.195693,2.8970086 -1.098856,1.3970236 C 49.066595,8.3400238 47.293513,6.4450401 45.078216,5.039969 43.491067,3.4347716 42.320017,5.2995123 43.008294,6.8701858 43.377466,8.0757984 42.396352,9.8484092 41.436303,8.0826176 39.495986,6.1871974 37.554762,4.1009113 34.933663,3.1709684 34.43432,4.9616064 37.657406,7.2336163 35.330261,8.4837042 33.270247,7.5313418 32.014835,5.4652316 30.005936,4.4031137 28.025701,2.7370781 24.872853,2.6583374 23.204841,4.8142259 22.304757,5.4810905 21.695453,7.3891749 21.175907,7.720094 20.828102,6.8112897 18.573997,4.1816124 18.649746,6.4652693 c 0.887734,1.8944991 0.09625,4.4867387 -2.283449,4.0899317 -0.74331,0.444483 -1.233549,1.189599 -1.658522,1.921967 z"
       id="path3836"
       inkscape:connector-curvature="0"
       sodipodi:nodetypes="ccccccccccccccccccccccccccccccccc" />
  </g>
</svg>
