<?xml version="1.0" encoding="UTF-8" standalone="no"?>
<!-- Created with Inkscape (http://www.inkscape.org/) -->

<svg
   xmlns:dc="http://purl.org/dc/elements/1.1/"
   xmlns:cc="http://creativecommons.org/ns#"
   xmlns:rdf="http://www.w3.org/1999/02/22-rdf-syntax-ns#"
   xmlns:svg="http://www.w3.org/2000/svg"
   xmlns="http://www.w3.org/2000/svg"
   xmlns:sodipodi="http://sodipodi.sourceforge.net/DTD/sodipodi-0.dtd"
   xmlns:inkscape="http://www.inkscape.org/namespaces/inkscape"
   width="64"
   height="64"
   id="svg2"
   version="1.1"
   inkscape:version="0.48.0 r9654"
   sodipodi:docname="reference.svg"
   style="display:inline">
  <defs
     id="defs4" />
  <sodipodi:namedview
     id="base"
     pagecolor="#ffffff"
     bordercolor="#666666"
     borderopacity="1.0"
     inkscape:pageopacity="0.0"
     inkscape:pageshadow="2"
     inkscape:zoom="7.9195959"
     inkscape:cx="3.8188173"
     inkscape:cy="36.592686"
     inkscape:document-units="px"
     inkscape:current-layer="layer3"
     showgrid="false"
     inkscape:window-width="1440"
     inkscape:window-height="848"
     inkscape:window-x="-8"
     inkscape:window-y="-8"
     inkscape:window-maximized="1" />
  <metadata
     id="metadata7">
    <rdf:RDF>
      <cc:Work
         rdf:about="">
        <dc:format>image/svg+xml</dc:format>
        <dc:type
           rdf:resource="http://purl.org/dc/dcmitype/StillImage" />
        <dc:title />
      </cc:Work>
    </rdf:RDF>
  </metadata>
  <g
     inkscape:groupmode="layer"
     id="layer2"
     inkscape:label="face"
     transform="translate(0,16)">
    <path
       style="fill:#fff0c1;fill-opacity:1;stroke:#000000;stroke-width:1.5;stroke-linecap:butt;stroke-linejoin:miter;stroke-opacity:1;stroke-miterlimit:4;stroke-dasharray:none"
       d="m 25.937513,-1.2521885 c -4.884631,0.84382564 -6.380056,1.56904189 -9.061605,4.7454716 -3.259612,4.6189632 -1.809096,11.4048669 -2.11381,14.3589229 0.02733,4.156202 -0.167459,7.545978 1.356197,11.101245 3.830089,4.565697 8.823721,7.193011 13.00005,10.51331 5.260027,0.64663 2.56332,0.730374 7.827761,-0.08545 2.971521,-2.625378 9.720959,-7.008171 12.304525,-9.986895 0.934024,-3.916042 0.382039,-7.108722 0.699752,-11.556885 -0.192871,-3.657352 0.329714,-12.1044156 -2.684001,-14.6771391 -1.985522,-2.30648182 -4.964176,-4.0007031 -9.348978,-4.638447 -2.96185,-0.3507078 -7.24973,-0.3211761 -11.979891,0.2258587 z"
       id="path2997"
       inkscape:connector-curvature="0"
       sodipodi:nodetypes="ccccccccccc" />
  </g>
  <g
     inkscape:groupmode="layer"
     id="layer6"
     inkscape:label="mouth"
     transform="translate(0,16)">
    <path
       style="fill:none;stroke:#000000;stroke-width:1.29915845px;stroke-linecap:round;stroke-linejoin:miter;stroke-opacity:1"
       d="m 27.751407,30.19782 c 1.875273,0 2.764579,-0.463986 5.219833,-0.289991 2.263328,-0.242705 3.018714,0.227067 4.697847,0.347985"
       id="path3883"
       inkscape:connector-curvature="0"
       sodipodi:nodetypes="ccc" />
  </g>
  <g
     inkscape:groupmode="layer"
     id="layer3"
     inkscape:label="ears"
     style="display:inline"
     transform="translate(0,16)">
    <g
       id="g3054"
       transform="matrix(1.2991585,0,0,0.99695873,1.420249,-3.7178271)"
       style="fill:#fff0c1;fill-opacity:1">
      <g
         transform="matrix(0.92546118,0,0,1,-7.9262089,1.7857143)"
         id="g3047"
         style="fill:#fff0c1;fill-opacity:1">
        <path
           style="fill:#fff0c1;fill-opacity:1;stroke:#000000;stroke-width:1.27873123;stroke-linecap:butt;stroke-linejoin:miter;stroke-opacity:1;stroke-miterlimit:4;stroke-dasharray:none"
           d="m 49.091623,16.839286 c 0.896901,-0.741933 1.901156,-1.47843 3.084595,-1.639009 0.635296,-0.08815 1.360263,0.226799 1.610557,0.834304 0.414328,1.906951 -0.148071,3.862701 0.179136,5.778387 0.169159,1.477725 -0.746183,2.95822 -2.09741,3.546315 -0.661067,0.245971 -1.333787,0.501512 -2.038962,0.586721 -0.185794,0.01842 -0.37355,0.02051 -0.559301,3.87e-4"
           id="path3026"
           inkscape:connector-curvature="0" />
        <path
           inkscape:connector-curvature="0"
           id="path3050"
           d="m 19.498235,17.017857 c -0.896901,-0.741933 -1.901156,-1.47843 -3.084595,-1.639009 -0.635296,-0.08815 -1.360263,0.226799 -1.610557,0.834304 -0.414328,1.906951 0.148071,3.862701 -0.179136,5.778387 -0.169159,1.477725 0.746183,2.95822 2.09741,3.546315 0.661067,0.245971 1.333787,0.501512 2.038962,0.586721 0.185794,0.01842 0.37355,0.02051 0.559301,3.87e-4"
           style="fill:#fff0c1;fill-opacity:1;stroke:#000000;stroke-width:1.27873123;stroke-linecap:butt;stroke-linejoin:miter;stroke-opacity:1;stroke-miterlimit:4;stroke-dasharray:none" />
      </g>
      <path
         inkscape:connector-curvature="0"
         id="path3037"
         d="m 40.535715,19.696428 c -1.428457,0.259469 -1.737074,2.014382 -1.367791,3.196514 0.328646,0.93007 0.605255,1.80658 -0.23942,2.517773"
         style="fill:#fff0c1;fill-opacity:1;stroke:#000000;stroke-width:1px;stroke-linecap:butt;stroke-linejoin:miter;stroke-opacity:1" />
      <path
         style="fill:#fff0c1;fill-opacity:1;stroke:#000000;stroke-width:1px;stroke-linecap:butt;stroke-linejoin:miter;stroke-opacity:1"
         d="m 7.1265388,19.696428 c 1.428457,0.259469 1.737074,2.014382 1.367791,3.196514 -0.328646,0.93007 -0.605255,1.80658 0.23942,2.517773"
         id="path3052"
         inkscape:connector-curvature="0" />
    </g>
  </g>
  <g
     inkscape:groupmode="layer"
     id="layer4"
     inkscape:label="eyes"
     style="display:inline"
     transform="translate(0,16)">
    <path
       style="fill:#ffffff;fill-opacity:1;stroke:#000000;stroke-width:1.29915845px;stroke-linecap:butt;stroke-linejoin:miter;stroke-opacity:1"
       d="m 36.915115,17.728218 c 1.645808,-1.113875 3.692933,-1.452181 5.647205,-1.415304 1.045893,0.02911 2.093716,0.174178 3.09352,0.488594 0.471548,0.766235 0.5442,1.793426 0.04478,2.564917 -0.724765,1.138699 -2.077276,1.72713 -3.379489,1.875692 -1.032363,0.127136 -2.108577,-0.135161 -2.93519,-0.775314 -0.997165,-0.742507 -1.651916,-1.823872 -2.470828,-2.738585 z"
       id="path3062"
       inkscape:connector-curvature="0" />
    <path
       sodipodi:type="arc"
       style="fill:#000000;fill-opacity:1;stroke:#00001f;stroke-width:2;stroke-linecap:round;stroke-linejoin:round;stroke-miterlimit:4;stroke-opacity:1;stroke-dasharray:none"
       id="path3076"
       sodipodi:cx="30.825893"
       sodipodi:cy="23"
       sodipodi:rx="0.69196427"
       sodipodi:ry="0.53571427"
       d="m 31.517858,23 c 0,0.295867 -0.309803,0.535714 -0.691965,0.535714 -0.382161,0 -0.691964,-0.239847 -0.691964,-0.535714 0,-0.295867 0.309803,-0.535714 0.691964,-0.535714 0.382162,0 0.691965,0.239847 0.691965,0.535714 z"
       transform="matrix(1.2991585,0,0,1.2991585,1.6522416,-11.862436)" />
    <path
       inkscape:connector-curvature="0"
       id="path3854"
       d="m 27.832252,17.67022 c -1.645807,-1.113875 -3.692933,-1.452181 -5.647205,-1.415304 -1.045893,0.02911 -2.093716,0.174178 -3.09352,0.488594 -0.471548,0.766234 -0.544199,1.793426 -0.04478,2.564917 0.724766,1.138699 2.077277,1.727129 3.379489,1.875692 1.032364,0.127136 2.108577,-0.135162 2.93519,-0.775314 0.997166,-0.742507 1.651917,-1.823872 2.470828,-2.738585 z"
       style="fill:#ffffff;fill-opacity:1;stroke:#000000;stroke-width:1.29915845px;stroke-linecap:butt;stroke-linejoin:miter;stroke-opacity:1" />
    <path
       transform="matrix(-1.2991585,0,0,1.2991585,63.095125,-11.920434)"
       d="m 31.517858,23 c 0,0.295867 -0.309803,0.535714 -0.691965,0.535714 -0.382161,0 -0.691964,-0.239847 -0.691964,-0.535714 0,-0.295867 0.309803,-0.535714 0.691964,-0.535714 0.382162,0 0.691965,0.239847 0.691965,0.535714 z"
       sodipodi:ry="0.53571427"
       sodipodi:rx="0.69196427"
       sodipodi:cy="23"
       sodipodi:cx="30.825893"
       id="path3856"
       style="fill:#000000;fill-opacity:1;stroke:#00001f;stroke-width:2;stroke-linecap:round;stroke-linejoin:round;stroke-miterlimit:4;stroke-opacity:1;stroke-dasharray:none"
       sodipodi:type="arc" />
    <path
       style="fill:none;stroke:#000000;stroke-width:1.29915845px;stroke-linecap:butt;stroke-linejoin:miter;stroke-opacity:1"
       d="m 35.987144,16.046272 c 2.449289,0.213389 4.479873,-1.662061 6.919548,-1.604027 1.422548,-0.0997 2.849482,-0.08995 4.274099,-0.135846"
       id="path3858"
       inkscape:connector-curvature="0" />
    <path
       inkscape:connector-curvature="0"
       id="path3865"
       d="M 28.73738,15.988274 C 26.288091,16.201663 24.257507,14.326212 21.817832,14.384247 20.395285,14.28455 18.96835,14.294293 17.543733,14.2484"
       style="fill:none;stroke:#000000;stroke-width:1.29915845px;stroke-linecap:butt;stroke-linejoin:miter;stroke-opacity:1" />
  </g>
  <g
     inkscape:groupmode="layer"
     id="layer5"
     inkscape:label="nose"
     transform="translate(0,16)">
    <path
       style="fill:none;stroke:#000000;stroke-width:1.29915845px;stroke-linecap:butt;stroke-linejoin:miter;stroke-opacity:1"
       d="m 29.781342,22.310072 c -0.210315,0.464965 -0.732012,1.630169 -0.559437,2.150731 0.228649,0.41514 1.170611,0.637382 1.568742,0.724412 1.091177,0.14653 2.026412,0.13863 3.122693,0.05342 0.451271,0.04125 1.52696,-0.346761 1.697498,-0.937631 0.158613,-0.630373 -0.141625,-1.229657 -0.43575,-1.758961"
       id="path3868"
       inkscape:connector-curvature="0"
       sodipodi:nodetypes="cccccc" />
  </g>
  <g
     inkscape:groupmode="layer"
     id="layer7"
     inkscape:label="hair"
     transform="translate(0,16)">
    <path
       style="fill:#140d00;fill-opacity:1;stroke:#000000;stroke-width:1.29915845px;stroke-linecap:butt;stroke-linejoin:miter;stroke-opacity:1"
       d="M 14.707775,12.477168 C 13.608186,9.1927187 10.35589,7.5118597 7.9945928,5.2487074 8.8598388,3.465489 13.418541,6.160527 12.290638,2.7047303 11.748933,1.7646696 8.9092257,-0.70536932 11.404725,-0.77741922 c 1.479918,0.62079352 5.218311,1.41075061 4.323681,-1.38618368 -0.535272,-2.1674705 -2.529063,-3.97994 -3.153363,-5.8718297 2.591163,0.1742589 5.441497,0.1768555 7.635239,1.795929 0.44323,1.1976728 2.461243,1.6351477 1.684732,-0.1425487 -0.747617,-2.1085854 2.07272,-3.3310708 3.045113,-1.2897797 1.563185,1.9246327 4.121787,1.9935685 5.699911,0.217207 2.293921,-0.9170512 3.65225,-1.5968182 6.04957,-1.7219532 -1.602843,0.1185261 -4.472238,2.205655 -3.303197,4.0172833 2.302982,-0.259423 4.208142,-1.8548206 6.534449,-2.1141023 3.270582,-0.7169587 6.637337,-0.6372668 9.964908,-0.7106624 -2.290843,0.763086 -4.752687,2.2713333 -5.272423,4.8116683 1.978017,1.0659713 4.262541,-0.06844 6.365376,0.4548652 0.884449,-0.050257 4.353739,0.4478614 1.949198,0.897067 -1.386537,-0.064549 -3.783025,1.7818652 -1.157172,2.14668345 1.649846,0.57183253 3.840281,1.15186005 4.23466,3.12966125 -1.924333,0.8278679 -4.082997,-0.5160907 -5.977539,0.1906359 1.057039,1.5320456 1.846446,3.1773324 1.980571,5.1302859 0.445764,1.0560924 0.195693,2.8970086 -1.098856,1.3970236 C 49.066595,8.3400238 47.293513,6.4450401 45.078216,5.039969 43.491067,3.4347716 42.320017,5.2995123 43.008294,6.8701858 43.377466,8.0757984 42.396352,9.8484092 41.436303,8.0826176 39.495986,6.1871974 37.554762,4.1009113 34.933663,3.1709684 34.43432,4.9616064 37.657406,7.2336163 35.330261,8.4837042 33.270247,7.5313418 32.014835,5.4652316 30.005936,4.4031137 28.025701,2.7370781 24.872853,2.6583374 23.204841,4.8142259 22.304757,5.4810905 21.695453,7.3891749 21.175907,7.720094 20.828102,6.8112897 18.573997,4.1816124 18.649746,6.4652693 c 0.887734,1.8944991 0.09625,4.4867387 -2.283449,4.0899317 -0.74331,0.444483 -1.233549,1.189599 -1.658522,1.921967 z"
       id="path3836"
       inkscape:connector-curvature="0"
       sodipodi:nodetypes="ccccccccccccccccccccccccccccccccc" />
  </g>
</svg>
